<?xml version="1.0" encoding="utf-8" standalone="no"?>
<!DOCTYPE svg PUBLIC "-//W3C//DTD SVG 1.1//EN"
  "http://www.w3.org/Graphics/SVG/1.1/DTD/svg11.dtd">
<!-- Created with matplotlib (https://matplotlib.org/) -->
<svg height="432pt" version="1.1" viewBox="0 0 432 432" width="432pt" xmlns="http://www.w3.org/2000/svg" xmlns:xlink="http://www.w3.org/1999/xlink">
 <defs>
  <style type="text/css">
*{stroke-linecap:butt;stroke-linejoin:round;}
  </style>
 </defs>
 <g id="figure_1">
  <g id="patch_1">
   <path d="M 0 432 
L 432 432 
L 432 0 
L 0 0 
z
" style="fill:#ffffff;"/>
  </g>
  <g id="axes_1">
   <g id="patch_2">
    <path d="M 54 384.48 
L 388.8 384.48 
L 388.8 51.84 
L 54 51.84 
z
" style="fill:#ffffff;"/>
   </g>
   <g id="matplotlib.axis_1">
    <g id="xtick_1">
     <g id="line2d_1">
      <defs>
       <path d="M 0 0 
L 0 3.5 
" id="m7e415fb383" style="stroke:#000000;stroke-width:0.8;"/>
      </defs>
      <g>
       <use style="stroke:#000000;stroke-width:0.8;" x="106.505371" xlink:href="#m7e415fb383" y="384.48"/>
      </g>
     </g>
     <g id="text_1">
      <!-- 175000 -->
      <defs>
       <path d="M 12.40625 8.296875 
L 28.515625 8.296875 
L 28.515625 63.921875 
L 10.984375 60.40625 
L 10.984375 69.390625 
L 28.421875 72.90625 
L 38.28125 72.90625 
L 38.28125 8.296875 
L 54.390625 8.296875 
L 54.390625 0 
L 12.40625 0 
z
" id="DejaVuSans-49"/>
       <path d="M 8.203125 72.90625 
L 55.078125 72.90625 
L 55.078125 68.703125 
L 28.609375 0 
L 18.3125 0 
L 43.21875 64.59375 
L 8.203125 64.59375 
z
" id="DejaVuSans-55"/>
       <path d="M 10.796875 72.90625 
L 49.515625 72.90625 
L 49.515625 64.59375 
L 19.828125 64.59375 
L 19.828125 46.734375 
Q 21.96875 47.46875 24.109375 47.828125 
Q 26.265625 48.1875 28.421875 48.1875 
Q 40.625 48.1875 47.75 41.5 
Q 54.890625 34.8125 54.890625 23.390625 
Q 54.890625 11.625 47.5625 5.09375 
Q 40.234375 -1.421875 26.90625 -1.421875 
Q 22.3125 -1.421875 17.546875 -0.640625 
Q 12.796875 0.140625 7.71875 1.703125 
L 7.71875 11.625 
Q 12.109375 9.234375 16.796875 8.0625 
Q 21.484375 6.890625 26.703125 6.890625 
Q 35.15625 6.890625 40.078125 11.328125 
Q 45.015625 15.765625 45.015625 23.390625 
Q 45.015625 31 40.078125 35.4375 
Q 35.15625 39.890625 26.703125 39.890625 
Q 22.75 39.890625 18.8125 39.015625 
Q 14.890625 38.140625 10.796875 36.28125 
z
" id="DejaVuSans-53"/>
       <path d="M 31.78125 66.40625 
Q 24.171875 66.40625 20.328125 58.90625 
Q 16.5 51.421875 16.5 36.375 
Q 16.5 21.390625 20.328125 13.890625 
Q 24.171875 6.390625 31.78125 6.390625 
Q 39.453125 6.390625 43.28125 13.890625 
Q 47.125 21.390625 47.125 36.375 
Q 47.125 51.421875 43.28125 58.90625 
Q 39.453125 66.40625 31.78125 66.40625 
z
M 31.78125 74.21875 
Q 44.046875 74.21875 50.515625 64.515625 
Q 56.984375 54.828125 56.984375 36.375 
Q 56.984375 17.96875 50.515625 8.265625 
Q 44.046875 -1.421875 31.78125 -1.421875 
Q 19.53125 -1.421875 13.0625 8.265625 
Q 6.59375 17.96875 6.59375 36.375 
Q 6.59375 54.828125 13.0625 64.515625 
Q 19.53125 74.21875 31.78125 74.21875 
z
" id="DejaVuSans-48"/>
      </defs>
      <g transform="translate(87.417871 399.078438)scale(0.1 -0.1)">
       <use xlink:href="#DejaVuSans-49"/>
       <use x="63.623047" xlink:href="#DejaVuSans-55"/>
       <use x="127.246094" xlink:href="#DejaVuSans-53"/>
       <use x="190.869141" xlink:href="#DejaVuSans-48"/>
       <use x="254.492188" xlink:href="#DejaVuSans-48"/>
       <use x="318.115234" xlink:href="#DejaVuSans-48"/>
      </g>
     </g>
    </g>
    <g id="xtick_2">
     <g id="line2d_2">
      <g>
       <use style="stroke:#000000;stroke-width:0.8;" x="162.157892" xlink:href="#m7e415fb383" y="384.48"/>
      </g>
     </g>
     <g id="text_2">
      <!-- 176000 -->
      <defs>
       <path d="M 33.015625 40.375 
Q 26.375 40.375 22.484375 35.828125 
Q 18.609375 31.296875 18.609375 23.390625 
Q 18.609375 15.53125 22.484375 10.953125 
Q 26.375 6.390625 33.015625 6.390625 
Q 39.65625 6.390625 43.53125 10.953125 
Q 47.40625 15.53125 47.40625 23.390625 
Q 47.40625 31.296875 43.53125 35.828125 
Q 39.65625 40.375 33.015625 40.375 
z
M 52.59375 71.296875 
L 52.59375 62.3125 
Q 48.875 64.0625 45.09375 64.984375 
Q 41.3125 65.921875 37.59375 65.921875 
Q 27.828125 65.921875 22.671875 59.328125 
Q 17.53125 52.734375 16.796875 39.40625 
Q 19.671875 43.65625 24.015625 45.921875 
Q 28.375 48.1875 33.59375 48.1875 
Q 44.578125 48.1875 50.953125 41.515625 
Q 57.328125 34.859375 57.328125 23.390625 
Q 57.328125 12.15625 50.6875 5.359375 
Q 44.046875 -1.421875 33.015625 -1.421875 
Q 20.359375 -1.421875 13.671875 8.265625 
Q 6.984375 17.96875 6.984375 36.375 
Q 6.984375 53.65625 15.1875 63.9375 
Q 23.390625 74.21875 37.203125 74.21875 
Q 40.921875 74.21875 44.703125 73.484375 
Q 48.484375 72.75 52.59375 71.296875 
z
" id="DejaVuSans-54"/>
      </defs>
      <g transform="translate(143.070392 399.078438)scale(0.1 -0.1)">
       <use xlink:href="#DejaVuSans-49"/>
       <use x="63.623047" xlink:href="#DejaVuSans-55"/>
       <use x="127.246094" xlink:href="#DejaVuSans-54"/>
       <use x="190.869141" xlink:href="#DejaVuSans-48"/>
       <use x="254.492188" xlink:href="#DejaVuSans-48"/>
       <use x="318.115234" xlink:href="#DejaVuSans-48"/>
      </g>
     </g>
    </g>
    <g id="xtick_3">
     <g id="line2d_3">
      <g>
       <use style="stroke:#000000;stroke-width:0.8;" x="217.810412" xlink:href="#m7e415fb383" y="384.48"/>
      </g>
     </g>
     <g id="text_3">
      <!-- 177000 -->
      <g transform="translate(198.722912 399.078438)scale(0.1 -0.1)">
       <use xlink:href="#DejaVuSans-49"/>
       <use x="63.623047" xlink:href="#DejaVuSans-55"/>
       <use x="127.246094" xlink:href="#DejaVuSans-55"/>
       <use x="190.869141" xlink:href="#DejaVuSans-48"/>
       <use x="254.492188" xlink:href="#DejaVuSans-48"/>
       <use x="318.115234" xlink:href="#DejaVuSans-48"/>
      </g>
     </g>
    </g>
    <g id="xtick_4">
     <g id="line2d_4">
      <g>
       <use style="stroke:#000000;stroke-width:0.8;" x="273.462933" xlink:href="#m7e415fb383" y="384.48"/>
      </g>
     </g>
     <g id="text_4">
      <!-- 178000 -->
      <defs>
       <path d="M 31.78125 34.625 
Q 24.75 34.625 20.71875 30.859375 
Q 16.703125 27.09375 16.703125 20.515625 
Q 16.703125 13.921875 20.71875 10.15625 
Q 24.75 6.390625 31.78125 6.390625 
Q 38.8125 6.390625 42.859375 10.171875 
Q 46.921875 13.96875 46.921875 20.515625 
Q 46.921875 27.09375 42.890625 30.859375 
Q 38.875 34.625 31.78125 34.625 
z
M 21.921875 38.8125 
Q 15.578125 40.375 12.03125 44.71875 
Q 8.5 49.078125 8.5 55.328125 
Q 8.5 64.0625 14.71875 69.140625 
Q 20.953125 74.21875 31.78125 74.21875 
Q 42.671875 74.21875 48.875 69.140625 
Q 55.078125 64.0625 55.078125 55.328125 
Q 55.078125 49.078125 51.53125 44.71875 
Q 48 40.375 41.703125 38.8125 
Q 48.828125 37.15625 52.796875 32.3125 
Q 56.78125 27.484375 56.78125 20.515625 
Q 56.78125 9.90625 50.3125 4.234375 
Q 43.84375 -1.421875 31.78125 -1.421875 
Q 19.734375 -1.421875 13.25 4.234375 
Q 6.78125 9.90625 6.78125 20.515625 
Q 6.78125 27.484375 10.78125 32.3125 
Q 14.796875 37.15625 21.921875 38.8125 
z
M 18.3125 54.390625 
Q 18.3125 48.734375 21.84375 45.5625 
Q 25.390625 42.390625 31.78125 42.390625 
Q 38.140625 42.390625 41.71875 45.5625 
Q 45.3125 48.734375 45.3125 54.390625 
Q 45.3125 60.0625 41.71875 63.234375 
Q 38.140625 66.40625 31.78125 66.40625 
Q 25.390625 66.40625 21.84375 63.234375 
Q 18.3125 60.0625 18.3125 54.390625 
z
" id="DejaVuSans-56"/>
      </defs>
      <g transform="translate(254.375433 399.078438)scale(0.1 -0.1)">
       <use xlink:href="#DejaVuSans-49"/>
       <use x="63.623047" xlink:href="#DejaVuSans-55"/>
       <use x="127.246094" xlink:href="#DejaVuSans-56"/>
       <use x="190.869141" xlink:href="#DejaVuSans-48"/>
       <use x="254.492188" xlink:href="#DejaVuSans-48"/>
       <use x="318.115234" xlink:href="#DejaVuSans-48"/>
      </g>
     </g>
    </g>
    <g id="xtick_5">
     <g id="line2d_5">
      <g>
       <use style="stroke:#000000;stroke-width:0.8;" x="329.115454" xlink:href="#m7e415fb383" y="384.48"/>
      </g>
     </g>
     <g id="text_5">
      <!-- 179000 -->
      <defs>
       <path d="M 10.984375 1.515625 
L 10.984375 10.5 
Q 14.703125 8.734375 18.5 7.8125 
Q 22.3125 6.890625 25.984375 6.890625 
Q 35.75 6.890625 40.890625 13.453125 
Q 46.046875 20.015625 46.78125 33.40625 
Q 43.953125 29.203125 39.59375 26.953125 
Q 35.25 24.703125 29.984375 24.703125 
Q 19.046875 24.703125 12.671875 31.3125 
Q 6.296875 37.9375 6.296875 49.421875 
Q 6.296875 60.640625 12.9375 67.421875 
Q 19.578125 74.21875 30.609375 74.21875 
Q 43.265625 74.21875 49.921875 64.515625 
Q 56.59375 54.828125 56.59375 36.375 
Q 56.59375 19.140625 48.40625 8.859375 
Q 40.234375 -1.421875 26.421875 -1.421875 
Q 22.703125 -1.421875 18.890625 -0.6875 
Q 15.09375 0.046875 10.984375 1.515625 
z
M 30.609375 32.421875 
Q 37.25 32.421875 41.125 36.953125 
Q 45.015625 41.5 45.015625 49.421875 
Q 45.015625 57.28125 41.125 61.84375 
Q 37.25 66.40625 30.609375 66.40625 
Q 23.96875 66.40625 20.09375 61.84375 
Q 16.21875 57.28125 16.21875 49.421875 
Q 16.21875 41.5 20.09375 36.953125 
Q 23.96875 32.421875 30.609375 32.421875 
z
" id="DejaVuSans-57"/>
      </defs>
      <g transform="translate(310.027954 399.078438)scale(0.1 -0.1)">
       <use xlink:href="#DejaVuSans-49"/>
       <use x="63.623047" xlink:href="#DejaVuSans-55"/>
       <use x="127.246094" xlink:href="#DejaVuSans-57"/>
       <use x="190.869141" xlink:href="#DejaVuSans-48"/>
       <use x="254.492188" xlink:href="#DejaVuSans-48"/>
       <use x="318.115234" xlink:href="#DejaVuSans-48"/>
      </g>
     </g>
    </g>
    <g id="xtick_6">
     <g id="line2d_6">
      <g>
       <use style="stroke:#000000;stroke-width:0.8;" x="384.767975" xlink:href="#m7e415fb383" y="384.48"/>
      </g>
     </g>
     <g id="text_6">
      <!-- 180000 -->
      <g transform="translate(365.680475 399.078438)scale(0.1 -0.1)">
       <use xlink:href="#DejaVuSans-49"/>
       <use x="63.623047" xlink:href="#DejaVuSans-56"/>
       <use x="127.246094" xlink:href="#DejaVuSans-48"/>
       <use x="190.869141" xlink:href="#DejaVuSans-48"/>
       <use x="254.492188" xlink:href="#DejaVuSans-48"/>
       <use x="318.115234" xlink:href="#DejaVuSans-48"/>
      </g>
     </g>
    </g>
   </g>
   <g id="matplotlib.axis_2">
    <g id="ytick_1">
     <g id="line2d_7">
      <defs>
       <path d="M 0 0 
L -3.5 0 
" id="m575e7d1645" style="stroke:#000000;stroke-width:0.8;"/>
      </defs>
      <g>
       <use style="stroke:#000000;stroke-width:0.8;" x="54" xlink:href="#m575e7d1645" y="334.796741"/>
      </g>
     </g>
     <g id="text_7">
      <!-- 175000 -->
      <g transform="translate(8.825 338.59596)scale(0.1 -0.1)">
       <use xlink:href="#DejaVuSans-49"/>
       <use x="63.623047" xlink:href="#DejaVuSans-55"/>
       <use x="127.246094" xlink:href="#DejaVuSans-53"/>
       <use x="190.869141" xlink:href="#DejaVuSans-48"/>
       <use x="254.492188" xlink:href="#DejaVuSans-48"/>
       <use x="318.115234" xlink:href="#DejaVuSans-48"/>
      </g>
     </g>
    </g>
    <g id="ytick_2">
     <g id="line2d_8">
      <g>
       <use style="stroke:#000000;stroke-width:0.8;" x="54" xlink:href="#m575e7d1645" y="277.76166"/>
      </g>
     </g>
     <g id="text_8">
      <!-- 176000 -->
      <g transform="translate(8.825 281.560879)scale(0.1 -0.1)">
       <use xlink:href="#DejaVuSans-49"/>
       <use x="63.623047" xlink:href="#DejaVuSans-55"/>
       <use x="127.246094" xlink:href="#DejaVuSans-54"/>
       <use x="190.869141" xlink:href="#DejaVuSans-48"/>
       <use x="254.492188" xlink:href="#DejaVuSans-48"/>
       <use x="318.115234" xlink:href="#DejaVuSans-48"/>
      </g>
     </g>
    </g>
    <g id="ytick_3">
     <g id="line2d_9">
      <g>
       <use style="stroke:#000000;stroke-width:0.8;" x="54" xlink:href="#m575e7d1645" y="220.726579"/>
      </g>
     </g>
     <g id="text_9">
      <!-- 177000 -->
      <g transform="translate(8.825 224.525797)scale(0.1 -0.1)">
       <use xlink:href="#DejaVuSans-49"/>
       <use x="63.623047" xlink:href="#DejaVuSans-55"/>
       <use x="127.246094" xlink:href="#DejaVuSans-55"/>
       <use x="190.869141" xlink:href="#DejaVuSans-48"/>
       <use x="254.492188" xlink:href="#DejaVuSans-48"/>
       <use x="318.115234" xlink:href="#DejaVuSans-48"/>
      </g>
     </g>
    </g>
    <g id="ytick_4">
     <g id="line2d_10">
      <g>
       <use style="stroke:#000000;stroke-width:0.8;" x="54" xlink:href="#m575e7d1645" y="163.691498"/>
      </g>
     </g>
     <g id="text_10">
      <!-- 178000 -->
      <g transform="translate(8.825 167.490716)scale(0.1 -0.1)">
       <use xlink:href="#DejaVuSans-49"/>
       <use x="63.623047" xlink:href="#DejaVuSans-55"/>
       <use x="127.246094" xlink:href="#DejaVuSans-56"/>
       <use x="190.869141" xlink:href="#DejaVuSans-48"/>
       <use x="254.492188" xlink:href="#DejaVuSans-48"/>
       <use x="318.115234" xlink:href="#DejaVuSans-48"/>
      </g>
     </g>
    </g>
    <g id="ytick_5">
     <g id="line2d_11">
      <g>
       <use style="stroke:#000000;stroke-width:0.8;" x="54" xlink:href="#m575e7d1645" y="106.656416"/>
      </g>
     </g>
     <g id="text_11">
      <!-- 179000 -->
      <g transform="translate(8.825 110.455635)scale(0.1 -0.1)">
       <use xlink:href="#DejaVuSans-49"/>
       <use x="63.623047" xlink:href="#DejaVuSans-55"/>
       <use x="127.246094" xlink:href="#DejaVuSans-57"/>
       <use x="190.869141" xlink:href="#DejaVuSans-48"/>
       <use x="254.492188" xlink:href="#DejaVuSans-48"/>
       <use x="318.115234" xlink:href="#DejaVuSans-48"/>
      </g>
     </g>
    </g>
   </g>
   <g id="line2d_12">
    <defs>
     <path d="M -3 3 
L 3 3 
L 3 -3 
L -3 -3 
z
" id="m7966100caa" style="stroke:#008000;stroke-linejoin:miter;"/>
    </defs>
    <g clip-path="url(#p995b17ea07)">
     <use style="fill:#008000;stroke:#008000;stroke-linejoin:miter;" x="77.34345" xlink:href="#m7966100caa" y="369.36"/>
     <use style="fill:#008000;stroke:#008000;stroke-linejoin:miter;" x="69.218182" xlink:href="#m7966100caa" y="358.637405"/>
    </g>
   </g>
   <g id="line2d_13">
    <defs>
     <path d="M 0 1.5 
C 0.397805 1.5 0.77937 1.341951 1.06066 1.06066 
C 1.341951 0.77937 1.5 0.397805 1.5 0 
C 1.5 -0.397805 1.341951 -0.77937 1.06066 -1.06066 
C 0.77937 -1.341951 0.397805 -1.5 0 -1.5 
C -0.397805 -1.5 -0.77937 -1.341951 -1.06066 -1.06066 
C -1.341951 -0.77937 -1.5 -0.397805 -1.5 0 
C -1.5 0.397805 -1.341951 0.77937 -1.06066 1.06066 
C -0.77937 1.341951 -0.397805 1.5 0 1.5 
z
" id="m4682a1c9fa" style="stroke:#ff0000;"/>
    </defs>
    <g clip-path="url(#p995b17ea07)">
     <use style="fill:#ff0000;stroke:#ff0000;" x="167.055313" xlink:href="#m4682a1c9fa" y="315.461848"/>
     <use style="fill:#ff0000;stroke:#ff0000;" x="150.1926" xlink:href="#m4682a1c9fa" y="217.81779"/>
     <use style="fill:#ff0000;stroke:#ff0000;" x="154.644801" xlink:href="#m4682a1c9fa" y="266.867959"/>
     <use style="fill:#ff0000;stroke:#ff0000;" x="97.990535" xlink:href="#m4682a1c9fa" y="212.000211"/>
     <use style="fill:#ff0000;stroke:#ff0000;" x="156.091767" xlink:href="#m4682a1c9fa" y="274.28252"/>
     <use style="fill:#ff0000;stroke:#ff0000;" x="152.696963" xlink:href="#m4682a1c9fa" y="242.342874"/>
    </g>
   </g>
   <g id="line2d_14">
    <g clip-path="url(#p995b17ea07)">
     <use style="fill:#ff0000;stroke:#ff0000;" x="189.594584" xlink:href="#m4682a1c9fa" y="313.750796"/>
     <use style="fill:#ff0000;stroke:#ff0000;" x="130.046387" xlink:href="#m4682a1c9fa" y="195.288932"/>
     <use style="fill:#ff0000;stroke:#ff0000;" x="110.512352" xlink:href="#m4682a1c9fa" y="193.34974"/>
     <use style="fill:#ff0000;stroke:#ff0000;" x="166.721398" xlink:href="#m4682a1c9fa" y="247.076786"/>
    </g>
   </g>
   <g id="line2d_15">
    <g clip-path="url(#p995b17ea07)">
     <use style="fill:#ff0000;stroke:#ff0000;" x="196.328539" xlink:href="#m4682a1c9fa" y="304.282972"/>
     <use style="fill:#ff0000;stroke:#ff0000;" x="189.316322" xlink:href="#m4682a1c9fa" y="199.224353"/>
     <use style="fill:#ff0000;stroke:#ff0000;" x="188.592839" xlink:href="#m4682a1c9fa" y="188.729898"/>
     <use style="fill:#ff0000;stroke:#ff0000;" x="183.97368" xlink:href="#m4682a1c9fa" y="148.691271"/>
    </g>
   </g>
   <g id="line2d_16">
    <g clip-path="url(#p995b17ea07)">
     <use style="fill:#ff0000;stroke:#ff0000;" x="197.942462" xlink:href="#m4682a1c9fa" y="276.735028"/>
     <use style="fill:#ff0000;stroke:#ff0000;" x="190.206762" xlink:href="#m4682a1c9fa" y="143.672184"/>
    </g>
   </g>
   <g id="line2d_17">
    <g clip-path="url(#p995b17ea07)">
     <use style="fill:#ff0000;stroke:#ff0000;" x="219.09042" xlink:href="#m4682a1c9fa" y="210.346194"/>
     <use style="fill:#ff0000;stroke:#ff0000;" x="222.874792" xlink:href="#m4682a1c9fa" y="263.559925"/>
    </g>
   </g>
   <g id="line2d_18">
    <g clip-path="url(#p995b17ea07)">
     <use style="fill:#ff0000;stroke:#ff0000;" x="240.349683" xlink:href="#m4682a1c9fa" y="222.209491"/>
     <use style="fill:#ff0000;stroke:#ff0000;" x="251.53584" xlink:href="#m4682a1c9fa" y="242.228804"/>
    </g>
   </g>
   <g id="line2d_19">
    <g clip-path="url(#p995b17ea07)">
     <use style="fill:#ff0000;stroke:#ff0000;" x="244.412317" xlink:href="#m4682a1c9fa" y="96.504172"/>
     <use style="fill:#ff0000;stroke:#ff0000;" x="250.589747" xlink:href="#m4682a1c9fa" y="175.7259"/>
     <use style="fill:#ff0000;stroke:#ff0000;" x="264.892445" xlink:href="#m4682a1c9fa" y="226.658227"/>
     <use style="fill:#ff0000;stroke:#ff0000;" x="295.668289" xlink:href="#m4682a1c9fa" y="230.878823"/>
    </g>
   </g>
   <g id="line2d_20">
    <g clip-path="url(#p995b17ea07)">
     <use style="fill:#ff0000;stroke:#ff0000;" x="255.153254" xlink:href="#m4682a1c9fa" y="174.927409"/>
     <use style="fill:#ff0000;stroke:#ff0000;" x="266.506368" xlink:href="#m4682a1c9fa" y="191.524617"/>
     <use style="fill:#ff0000;stroke:#ff0000;" x="280.697761" xlink:href="#m4682a1c9fa" y="208.920317"/>
     <use style="fill:#ff0000;stroke:#ff0000;" x="273.129018" xlink:href="#m4682a1c9fa" y="203.045704"/>
     <use style="fill:#ff0000;stroke:#ff0000;" x="330.56242" xlink:href="#m4682a1c9fa" y="226.316017"/>
    </g>
   </g>
   <g id="line2d_21">
    <g clip-path="url(#p995b17ea07)">
     <use style="fill:#ff0000;stroke:#ff0000;" x="255.375864" xlink:href="#m4682a1c9fa" y="171.391233"/>
     <use style="fill:#ff0000;stroke:#ff0000;" x="323.216287" xlink:href="#m4682a1c9fa" y="206.981124"/>
     <use style="fill:#ff0000;stroke:#ff0000;" x="304.461387" xlink:href="#m4682a1c9fa" y="181.999759"/>
     <use style="fill:#ff0000;stroke:#ff0000;" x="299.730923" xlink:href="#m4682a1c9fa" y="179.262075"/>
    </g>
   </g>
   <g id="line2d_22">
    <g clip-path="url(#p995b17ea07)">
     <use style="fill:#ff0000;stroke:#ff0000;" x="256.82283" xlink:href="#m4682a1c9fa" y="136.143553"/>
     <use style="fill:#ff0000;stroke:#ff0000;" x="264.78114" xlink:href="#m4682a1c9fa" y="160.098287"/>
     <use style="fill:#ff0000;stroke:#ff0000;" x="373.581818" xlink:href="#m4682a1c9fa" y="166.657322"/>
    </g>
   </g>
   <g id="line2d_23">
    <g clip-path="url(#p995b17ea07)">
     <use style="fill:#ff0000;stroke:#ff0000;" x="289.268249" xlink:href="#m4682a1c9fa" y="153.482218"/>
     <use style="fill:#ff0000;stroke:#ff0000;" x="348.927751" xlink:href="#m4682a1c9fa" y="155.136235"/>
     <use style="fill:#ff0000;stroke:#ff0000;" x="277.080347" xlink:href="#m4682a1c9fa" y="77.16928"/>
    </g>
   </g>
   <g id="line2d_24">
    <g clip-path="url(#p995b17ea07)">
     <use style="fill:#ff0000;stroke:#ff0000;" x="295.056111" xlink:href="#m4682a1c9fa" y="146.809114"/>
     <use style="fill:#ff0000;stroke:#ff0000;" x="293.776103" xlink:href="#m4682a1c9fa" y="128.843063"/>
     <use style="fill:#ff0000;stroke:#ff0000;" x="329.115454" xlink:href="#m4682a1c9fa" y="151.428955"/>
    </g>
   </g>
   <g id="line2d_25">
    <g clip-path="url(#p995b17ea07)">
     <use style="fill:#ff0000;stroke:#ff0000;" x="313.087528" xlink:href="#m4682a1c9fa" y="137.22722"/>
     <use style="fill:#ff0000;stroke:#ff0000;" x="312.809265" xlink:href="#m4682a1c9fa" y="134.204361"/>
     <use style="fill:#ff0000;stroke:#ff0000;" x="323.049329" xlink:href="#m4682a1c9fa" y="142.246307"/>
     <use style="fill:#ff0000;stroke:#ff0000;" x="308.245759" xlink:href="#m4682a1c9fa" y="120.915187"/>
     <use style="fill:#ff0000;stroke:#ff0000;" x="307.800539" xlink:href="#m4682a1c9fa" y="66.96"/>
     <use style="fill:#ff0000;stroke:#ff0000;" x="337.463332" xlink:href="#m4682a1c9fa" y="146.409868"/>
    </g>
   </g>
   <g id="line2d_26"/>
   <g id="line2d_27"/>
   <g id="line2d_28"/>
   <g id="line2d_29"/>
   <g id="line2d_30"/>
   <g id="line2d_31"/>
   <g id="line2d_32"/>
   <g id="line2d_33"/>
   <g id="line2d_34"/>
   <g id="line2d_35"/>
   <g id="line2d_36"/>
   <g id="line2d_37"/>
   <g id="line2d_38"/>
   <g id="line2d_39"/>
   <g id="line2d_40"/>
   <g id="line2d_41"/>
   <g id="line2d_42"/>
   <g id="line2d_43"/>
   <g id="line2d_44"/>
   <g id="line2d_45"/>
   <g id="line2d_46"/>
   <g id="line2d_47"/>
   <g id="line2d_48"/>
   <g id="line2d_49"/>
   <g id="line2d_50"/>
   <g id="line2d_51"/>
   <g id="line2d_52"/>
   <g id="line2d_53"/>
   <g id="line2d_54"/>
   <g id="line2d_55"/>
   <g id="line2d_56"/>
   <g id="line2d_57"/>
   <g id="line2d_58"/>
   <g id="line2d_59"/>
   <g id="line2d_60"/>
   <g id="line2d_61"/>
   <g id="patch_3">
    <path d="M 54 384.48 
L 54 51.84 
" style="fill:none;stroke:#000000;stroke-linecap:square;stroke-linejoin:miter;stroke-width:0.8;"/>
   </g>
   <g id="patch_4">
    <path d="M 388.8 384.48 
L 388.8 51.84 
" style="fill:none;stroke:#000000;stroke-linecap:square;stroke-linejoin:miter;stroke-width:0.8;"/>
   </g>
   <g id="patch_5">
    <path d="M 54 384.48 
L 388.8 384.48 
" style="fill:none;stroke:#000000;stroke-linecap:square;stroke-linejoin:miter;stroke-width:0.8;"/>
   </g>
   <g id="patch_6">
    <path d="M 54 51.84 
L 388.8 51.84 
" style="fill:none;stroke:#000000;stroke-linecap:square;stroke-linejoin:miter;stroke-width:0.8;"/>
   </g>
  </g>
 </g>
 <defs>
  <clipPath id="p995b17ea07">
   <rect height="332.64" width="334.8" x="54" y="51.84"/>
  </clipPath>
 </defs>
</svg>
