<?xml version="1.0" encoding="utf-8" standalone="no"?>
<!DOCTYPE svg PUBLIC "-//W3C//DTD SVG 1.1//EN"
  "http://www.w3.org/Graphics/SVG/1.1/DTD/svg11.dtd">
<!-- Created with matplotlib (https://matplotlib.org/) -->
<svg height="432pt" version="1.1" viewBox="0 0 432 432" width="432pt" xmlns="http://www.w3.org/2000/svg" xmlns:xlink="http://www.w3.org/1999/xlink">
 <defs>
  <style type="text/css">
*{stroke-linecap:butt;stroke-linejoin:round;}
  </style>
 </defs>
 <g id="figure_1">
  <g id="patch_1">
   <path d="M 0 432 
L 432 432 
L 432 0 
L 0 0 
z
" style="fill:#ffffff;"/>
  </g>
  <g id="axes_1">
   <g id="patch_2">
    <path d="M 54 384.48 
L 388.8 384.48 
L 388.8 51.84 
L 54 51.84 
z
" style="fill:#ffffff;"/>
   </g>
   <g id="matplotlib.axis_1">
    <g id="xtick_1">
     <g id="line2d_1">
      <defs>
       <path d="M 0 0 
L 0 3.5 
" id="mf24e8d797a" style="stroke:#000000;stroke-width:0.8;"/>
      </defs>
      <g>
       <use style="stroke:#000000;stroke-width:0.8;" x="54.22314" xlink:href="#mf24e8d797a" y="384.48"/>
      </g>
     </g>
     <g id="text_1">
      <!-- 174000 -->
      <defs>
       <path d="M 12.40625 8.296875 
L 28.515625 8.296875 
L 28.515625 63.921875 
L 10.984375 60.40625 
L 10.984375 69.390625 
L 28.421875 72.90625 
L 38.28125 72.90625 
L 38.28125 8.296875 
L 54.390625 8.296875 
L 54.390625 0 
L 12.40625 0 
z
" id="DejaVuSans-49"/>
       <path d="M 8.203125 72.90625 
L 55.078125 72.90625 
L 55.078125 68.703125 
L 28.609375 0 
L 18.3125 0 
L 43.21875 64.59375 
L 8.203125 64.59375 
z
" id="DejaVuSans-55"/>
       <path d="M 37.796875 64.3125 
L 12.890625 25.390625 
L 37.796875 25.390625 
z
M 35.203125 72.90625 
L 47.609375 72.90625 
L 47.609375 25.390625 
L 58.015625 25.390625 
L 58.015625 17.1875 
L 47.609375 17.1875 
L 47.609375 0 
L 37.796875 0 
L 37.796875 17.1875 
L 4.890625 17.1875 
L 4.890625 26.703125 
z
" id="DejaVuSans-52"/>
       <path d="M 31.78125 66.40625 
Q 24.171875 66.40625 20.328125 58.90625 
Q 16.5 51.421875 16.5 36.375 
Q 16.5 21.390625 20.328125 13.890625 
Q 24.171875 6.390625 31.78125 6.390625 
Q 39.453125 6.390625 43.28125 13.890625 
Q 47.125 21.390625 47.125 36.375 
Q 47.125 51.421875 43.28125 58.90625 
Q 39.453125 66.40625 31.78125 66.40625 
z
M 31.78125 74.21875 
Q 44.046875 74.21875 50.515625 64.515625 
Q 56.984375 54.828125 56.984375 36.375 
Q 56.984375 17.96875 50.515625 8.265625 
Q 44.046875 -1.421875 31.78125 -1.421875 
Q 19.53125 -1.421875 13.0625 8.265625 
Q 6.59375 17.96875 6.59375 36.375 
Q 6.59375 54.828125 13.0625 64.515625 
Q 19.53125 74.21875 31.78125 74.21875 
z
" id="DejaVuSans-48"/>
      </defs>
      <g transform="translate(35.13564 399.078438)scale(0.1 -0.1)">
       <use xlink:href="#DejaVuSans-49"/>
       <use x="63.623047" xlink:href="#DejaVuSans-55"/>
       <use x="127.246094" xlink:href="#DejaVuSans-52"/>
       <use x="190.869141" xlink:href="#DejaVuSans-48"/>
       <use x="254.492188" xlink:href="#DejaVuSans-48"/>
       <use x="318.115234" xlink:href="#DejaVuSans-48"/>
      </g>
     </g>
    </g>
    <g id="xtick_2">
     <g id="line2d_2">
      <g>
       <use style="stroke:#000000;stroke-width:0.8;" x="125.628099" xlink:href="#mf24e8d797a" y="384.48"/>
      </g>
     </g>
     <g id="text_2">
      <!-- 176000 -->
      <defs>
       <path d="M 33.015625 40.375 
Q 26.375 40.375 22.484375 35.828125 
Q 18.609375 31.296875 18.609375 23.390625 
Q 18.609375 15.53125 22.484375 10.953125 
Q 26.375 6.390625 33.015625 6.390625 
Q 39.65625 6.390625 43.53125 10.953125 
Q 47.40625 15.53125 47.40625 23.390625 
Q 47.40625 31.296875 43.53125 35.828125 
Q 39.65625 40.375 33.015625 40.375 
z
M 52.59375 71.296875 
L 52.59375 62.3125 
Q 48.875 64.0625 45.09375 64.984375 
Q 41.3125 65.921875 37.59375 65.921875 
Q 27.828125 65.921875 22.671875 59.328125 
Q 17.53125 52.734375 16.796875 39.40625 
Q 19.671875 43.65625 24.015625 45.921875 
Q 28.375 48.1875 33.59375 48.1875 
Q 44.578125 48.1875 50.953125 41.515625 
Q 57.328125 34.859375 57.328125 23.390625 
Q 57.328125 12.15625 50.6875 5.359375 
Q 44.046875 -1.421875 33.015625 -1.421875 
Q 20.359375 -1.421875 13.671875 8.265625 
Q 6.984375 17.96875 6.984375 36.375 
Q 6.984375 53.65625 15.1875 63.9375 
Q 23.390625 74.21875 37.203125 74.21875 
Q 40.921875 74.21875 44.703125 73.484375 
Q 48.484375 72.75 52.59375 71.296875 
z
" id="DejaVuSans-54"/>
      </defs>
      <g transform="translate(106.540599 399.078438)scale(0.1 -0.1)">
       <use xlink:href="#DejaVuSans-49"/>
       <use x="63.623047" xlink:href="#DejaVuSans-55"/>
       <use x="127.246094" xlink:href="#DejaVuSans-54"/>
       <use x="190.869141" xlink:href="#DejaVuSans-48"/>
       <use x="254.492188" xlink:href="#DejaVuSans-48"/>
       <use x="318.115234" xlink:href="#DejaVuSans-48"/>
      </g>
     </g>
    </g>
    <g id="xtick_3">
     <g id="line2d_3">
      <g>
       <use style="stroke:#000000;stroke-width:0.8;" x="197.033058" xlink:href="#mf24e8d797a" y="384.48"/>
      </g>
     </g>
     <g id="text_3">
      <!-- 178000 -->
      <defs>
       <path d="M 31.78125 34.625 
Q 24.75 34.625 20.71875 30.859375 
Q 16.703125 27.09375 16.703125 20.515625 
Q 16.703125 13.921875 20.71875 10.15625 
Q 24.75 6.390625 31.78125 6.390625 
Q 38.8125 6.390625 42.859375 10.171875 
Q 46.921875 13.96875 46.921875 20.515625 
Q 46.921875 27.09375 42.890625 30.859375 
Q 38.875 34.625 31.78125 34.625 
z
M 21.921875 38.8125 
Q 15.578125 40.375 12.03125 44.71875 
Q 8.5 49.078125 8.5 55.328125 
Q 8.5 64.0625 14.71875 69.140625 
Q 20.953125 74.21875 31.78125 74.21875 
Q 42.671875 74.21875 48.875 69.140625 
Q 55.078125 64.0625 55.078125 55.328125 
Q 55.078125 49.078125 51.53125 44.71875 
Q 48 40.375 41.703125 38.8125 
Q 48.828125 37.15625 52.796875 32.3125 
Q 56.78125 27.484375 56.78125 20.515625 
Q 56.78125 9.90625 50.3125 4.234375 
Q 43.84375 -1.421875 31.78125 -1.421875 
Q 19.734375 -1.421875 13.25 4.234375 
Q 6.78125 9.90625 6.78125 20.515625 
Q 6.78125 27.484375 10.78125 32.3125 
Q 14.796875 37.15625 21.921875 38.8125 
z
M 18.3125 54.390625 
Q 18.3125 48.734375 21.84375 45.5625 
Q 25.390625 42.390625 31.78125 42.390625 
Q 38.140625 42.390625 41.71875 45.5625 
Q 45.3125 48.734375 45.3125 54.390625 
Q 45.3125 60.0625 41.71875 63.234375 
Q 38.140625 66.40625 31.78125 66.40625 
Q 25.390625 66.40625 21.84375 63.234375 
Q 18.3125 60.0625 18.3125 54.390625 
z
" id="DejaVuSans-56"/>
      </defs>
      <g transform="translate(177.945558 399.078438)scale(0.1 -0.1)">
       <use xlink:href="#DejaVuSans-49"/>
       <use x="63.623047" xlink:href="#DejaVuSans-55"/>
       <use x="127.246094" xlink:href="#DejaVuSans-56"/>
       <use x="190.869141" xlink:href="#DejaVuSans-48"/>
       <use x="254.492188" xlink:href="#DejaVuSans-48"/>
       <use x="318.115234" xlink:href="#DejaVuSans-48"/>
      </g>
     </g>
    </g>
    <g id="xtick_4">
     <g id="line2d_4">
      <g>
       <use style="stroke:#000000;stroke-width:0.8;" x="268.438017" xlink:href="#mf24e8d797a" y="384.48"/>
      </g>
     </g>
     <g id="text_4">
      <!-- 180000 -->
      <g transform="translate(249.350517 399.078438)scale(0.1 -0.1)">
       <use xlink:href="#DejaVuSans-49"/>
       <use x="63.623047" xlink:href="#DejaVuSans-56"/>
       <use x="127.246094" xlink:href="#DejaVuSans-48"/>
       <use x="190.869141" xlink:href="#DejaVuSans-48"/>
       <use x="254.492188" xlink:href="#DejaVuSans-48"/>
       <use x="318.115234" xlink:href="#DejaVuSans-48"/>
      </g>
     </g>
    </g>
    <g id="xtick_5">
     <g id="line2d_5">
      <g>
       <use style="stroke:#000000;stroke-width:0.8;" x="339.842975" xlink:href="#mf24e8d797a" y="384.48"/>
      </g>
     </g>
     <g id="text_5">
      <!-- 182000 -->
      <defs>
       <path d="M 19.1875 8.296875 
L 53.609375 8.296875 
L 53.609375 0 
L 7.328125 0 
L 7.328125 8.296875 
Q 12.9375 14.109375 22.625 23.890625 
Q 32.328125 33.6875 34.8125 36.53125 
Q 39.546875 41.84375 41.421875 45.53125 
Q 43.3125 49.21875 43.3125 52.78125 
Q 43.3125 58.59375 39.234375 62.25 
Q 35.15625 65.921875 28.609375 65.921875 
Q 23.96875 65.921875 18.8125 64.3125 
Q 13.671875 62.703125 7.8125 59.421875 
L 7.8125 69.390625 
Q 13.765625 71.78125 18.9375 73 
Q 24.125 74.21875 28.421875 74.21875 
Q 39.75 74.21875 46.484375 68.546875 
Q 53.21875 62.890625 53.21875 53.421875 
Q 53.21875 48.921875 51.53125 44.890625 
Q 49.859375 40.875 45.40625 35.40625 
Q 44.1875 33.984375 37.640625 27.21875 
Q 31.109375 20.453125 19.1875 8.296875 
z
" id="DejaVuSans-50"/>
      </defs>
      <g transform="translate(320.755475 399.078438)scale(0.1 -0.1)">
       <use xlink:href="#DejaVuSans-49"/>
       <use x="63.623047" xlink:href="#DejaVuSans-56"/>
       <use x="127.246094" xlink:href="#DejaVuSans-50"/>
       <use x="190.869141" xlink:href="#DejaVuSans-48"/>
       <use x="254.492188" xlink:href="#DejaVuSans-48"/>
       <use x="318.115234" xlink:href="#DejaVuSans-48"/>
      </g>
     </g>
    </g>
   </g>
   <g id="matplotlib.axis_2">
    <g id="ytick_1">
     <g id="line2d_6">
      <defs>
       <path d="M 0 0 
L -3.5 0 
" id="m4541f1637d" style="stroke:#000000;stroke-width:0.8;"/>
      </defs>
      <g>
       <use style="stroke:#000000;stroke-width:0.8;" x="54" xlink:href="#m4541f1637d" y="335.690897"/>
      </g>
     </g>
     <g id="text_6">
      <!-- 176000 -->
      <g transform="translate(8.825 339.490115)scale(0.1 -0.1)">
       <use xlink:href="#DejaVuSans-49"/>
       <use x="63.623047" xlink:href="#DejaVuSans-55"/>
       <use x="127.246094" xlink:href="#DejaVuSans-54"/>
       <use x="190.869141" xlink:href="#DejaVuSans-48"/>
       <use x="254.492188" xlink:href="#DejaVuSans-48"/>
       <use x="318.115234" xlink:href="#DejaVuSans-48"/>
      </g>
     </g>
    </g>
    <g id="ytick_2">
     <g id="line2d_7">
      <g>
       <use style="stroke:#000000;stroke-width:0.8;" x="54" xlink:href="#m4541f1637d" y="279.15168"/>
      </g>
     </g>
     <g id="text_7">
      <!-- 178000 -->
      <g transform="translate(8.825 282.950899)scale(0.1 -0.1)">
       <use xlink:href="#DejaVuSans-49"/>
       <use x="63.623047" xlink:href="#DejaVuSans-55"/>
       <use x="127.246094" xlink:href="#DejaVuSans-56"/>
       <use x="190.869141" xlink:href="#DejaVuSans-48"/>
       <use x="254.492188" xlink:href="#DejaVuSans-48"/>
       <use x="318.115234" xlink:href="#DejaVuSans-48"/>
      </g>
     </g>
    </g>
    <g id="ytick_3">
     <g id="line2d_8">
      <g>
       <use style="stroke:#000000;stroke-width:0.8;" x="54" xlink:href="#m4541f1637d" y="222.612463"/>
      </g>
     </g>
     <g id="text_8">
      <!-- 180000 -->
      <g transform="translate(8.825 226.411682)scale(0.1 -0.1)">
       <use xlink:href="#DejaVuSans-49"/>
       <use x="63.623047" xlink:href="#DejaVuSans-56"/>
       <use x="127.246094" xlink:href="#DejaVuSans-48"/>
       <use x="190.869141" xlink:href="#DejaVuSans-48"/>
       <use x="254.492188" xlink:href="#DejaVuSans-48"/>
       <use x="318.115234" xlink:href="#DejaVuSans-48"/>
      </g>
     </g>
    </g>
    <g id="ytick_4">
     <g id="line2d_9">
      <g>
       <use style="stroke:#000000;stroke-width:0.8;" x="54" xlink:href="#m4541f1637d" y="166.073247"/>
      </g>
     </g>
     <g id="text_9">
      <!-- 182000 -->
      <g transform="translate(8.825 169.872465)scale(0.1 -0.1)">
       <use xlink:href="#DejaVuSans-49"/>
       <use x="63.623047" xlink:href="#DejaVuSans-56"/>
       <use x="127.246094" xlink:href="#DejaVuSans-50"/>
       <use x="190.869141" xlink:href="#DejaVuSans-48"/>
       <use x="254.492188" xlink:href="#DejaVuSans-48"/>
       <use x="318.115234" xlink:href="#DejaVuSans-48"/>
      </g>
     </g>
    </g>
    <g id="ytick_5">
     <g id="line2d_10">
      <g>
       <use style="stroke:#000000;stroke-width:0.8;" x="54" xlink:href="#m4541f1637d" y="109.53403"/>
      </g>
     </g>
     <g id="text_10">
      <!-- 184000 -->
      <g transform="translate(8.825 113.333249)scale(0.1 -0.1)">
       <use xlink:href="#DejaVuSans-49"/>
       <use x="63.623047" xlink:href="#DejaVuSans-56"/>
       <use x="127.246094" xlink:href="#DejaVuSans-52"/>
       <use x="190.869141" xlink:href="#DejaVuSans-48"/>
       <use x="254.492188" xlink:href="#DejaVuSans-48"/>
       <use x="318.115234" xlink:href="#DejaVuSans-48"/>
      </g>
     </g>
    </g>
    <g id="ytick_6">
     <g id="line2d_11">
      <g>
       <use style="stroke:#000000;stroke-width:0.8;" x="54" xlink:href="#m4541f1637d" y="52.994813"/>
      </g>
     </g>
     <g id="text_11">
      <!-- 186000 -->
      <g transform="translate(8.825 56.794032)scale(0.1 -0.1)">
       <use xlink:href="#DejaVuSans-49"/>
       <use x="63.623047" xlink:href="#DejaVuSans-56"/>
       <use x="127.246094" xlink:href="#DejaVuSans-54"/>
       <use x="190.869141" xlink:href="#DejaVuSans-48"/>
       <use x="254.492188" xlink:href="#DejaVuSans-48"/>
       <use x="318.115234" xlink:href="#DejaVuSans-48"/>
      </g>
     </g>
    </g>
   </g>
   <g id="line2d_12">
    <defs>
     <path d="M -3 3 
L 3 3 
L 3 -3 
L -3 -3 
z
" id="m47eb78bce1" style="stroke:#008000;stroke-linejoin:miter;"/>
    </defs>
    <g clip-path="url(#p54210ebac2)">
     <use style="fill:#008000;stroke:#008000;stroke-linejoin:miter;" x="111.025785" xlink:href="#m47eb78bce1" y="369.36"/>
     <use style="fill:#008000;stroke:#008000;stroke-linejoin:miter;" x="69.218182" xlink:href="#m47eb78bce1" y="353.726907"/>
    </g>
   </g>
   <g id="line2d_13">
    <defs>
     <path d="M 0 1.5 
C 0.397805 1.5 0.77937 1.341951 1.06066 1.06066 
C 1.341951 0.77937 1.5 0.397805 1.5 0 
C 1.5 -0.397805 1.341951 -0.77937 1.06066 -1.06066 
C 0.77937 -1.341951 0.397805 -1.5 0 -1.5 
C -0.397805 -1.5 -0.77937 -1.341951 -1.06066 -1.06066 
C -1.341951 -0.77937 -1.5 -0.397805 -1.5 0 
C -1.5 0.397805 -1.341951 0.77937 -1.06066 1.06066 
C -0.77937 1.341951 -0.397805 1.5 0 1.5 
z
" id="mec75421f79" style="stroke:#ff0000;"/>
    </defs>
    <g clip-path="url(#p54210ebac2)">
     <use style="fill:#ff0000;stroke:#ff0000;" x="142.479669" xlink:href="#mec75421f79" y="365.76976"/>
     <use style="fill:#ff0000;stroke:#ff0000;" x="87.997686" xlink:href="#mec75421f79" y="342.108098"/>
    </g>
   </g>
   <g id="line2d_14">
    <g clip-path="url(#p54210ebac2)">
     <use style="fill:#ff0000;stroke:#ff0000;" x="147.013884" xlink:href="#mec75421f79" y="315.619475"/>
     <use style="fill:#ff0000;stroke:#ff0000;" x="184.715702" xlink:href="#mec75421f79" y="317.570078"/>
    </g>
   </g>
   <g id="line2d_15">
    <g clip-path="url(#p54210ebac2)">
     <use style="fill:#ff0000;stroke:#ff0000;" x="186.750744" xlink:href="#mec75421f79" y="275.448361"/>
    </g>
   </g>
   <g id="line2d_16">
    <g clip-path="url(#p54210ebac2)">
     <use style="fill:#ff0000;stroke:#ff0000;" x="187.536198" xlink:href="#mec75421f79" y="248.026841"/>
     <use style="fill:#ff0000;stroke:#ff0000;" x="226.380496" xlink:href="#mec75421f79" y="253.030562"/>
     <use style="fill:#ff0000;stroke:#ff0000;" x="228.237025" xlink:href="#mec75421f79" y="267.702489"/>
     <use style="fill:#ff0000;stroke:#ff0000;" x="224.523967" xlink:href="#mec75421f79" y="252.210743"/>
    </g>
   </g>
   <g id="line2d_17">
    <g clip-path="url(#p54210ebac2)">
     <use style="fill:#ff0000;stroke:#ff0000;" x="214.92" xlink:href="#mec75421f79" y="226.287512"/>
     <use style="fill:#ff0000;stroke:#ff0000;" x="244.124628" xlink:href="#mec75421f79" y="249.044547"/>
    </g>
   </g>
   <g id="line2d_18">
    <g clip-path="url(#p54210ebac2)">
     <use style="fill:#ff0000;stroke:#ff0000;" x="228.237025" xlink:href="#mec75421f79" y="221.990532"/>
     <use style="fill:#ff0000;stroke:#ff0000;" x="247.766281" xlink:href="#mec75421f79" y="242.231571"/>
     <use style="fill:#ff0000;stroke:#ff0000;" x="254.621157" xlink:href="#mec75421f79" y="244.323522"/>
    </g>
   </g>
   <g id="line2d_19">
    <g clip-path="url(#p54210ebac2)">
     <use style="fill:#ff0000;stroke:#ff0000;" x="237.591074" xlink:href="#mec75421f79" y="210.824037"/>
     <use style="fill:#ff0000;stroke:#ff0000;" x="266.010248" xlink:href="#mec75421f79" y="232.98741"/>
    </g>
   </g>
   <g id="line2d_20">
    <g clip-path="url(#p54210ebac2)">
     <use style="fill:#ff0000;stroke:#ff0000;" x="262.618512" xlink:href="#mec75421f79" y="180.660365"/>
     <use style="fill:#ff0000;stroke:#ff0000;" x="287.860165" xlink:href="#mec75421f79" y="217.863169"/>
     <use style="fill:#ff0000;stroke:#ff0000;" x="282.933223" xlink:href="#mec75421f79" y="209.86287"/>
     <use style="fill:#ff0000;stroke:#ff0000;" x="308.353388" xlink:href="#mec75421f79" y="218.796066"/>
    </g>
   </g>
   <g id="line2d_21">
    <g clip-path="url(#p54210ebac2)">
     <use style="fill:#ff0000;stroke:#ff0000;" x="290.180826" xlink:href="#mec75421f79" y="201.099291"/>
     <use style="fill:#ff0000;stroke:#ff0000;" x="327.989752" xlink:href="#mec75421f79" y="208.647277"/>
    </g>
   </g>
   <g id="line2d_22">
    <g clip-path="url(#p54210ebac2)">
     <use style="fill:#ff0000;stroke:#ff0000;" x="303.319339" xlink:href="#mec75421f79" y="197.989634"/>
     <use style="fill:#ff0000;stroke:#ff0000;" x="290.359339" xlink:href="#mec75421f79" y="189.932796"/>
     <use style="fill:#ff0000;stroke:#ff0000;" x="373.581818" xlink:href="#mec75421f79" y="206.21609"/>
     <use style="fill:#ff0000;stroke:#ff0000;" x="332.27405" xlink:href="#mec75421f79" y="200.166394"/>
    </g>
   </g>
   <g id="line2d_23">
    <g clip-path="url(#p54210ebac2)">
     <use style="fill:#ff0000;stroke:#ff0000;" x="314.172893" xlink:href="#mec75421f79" y="195.501909"/>
     <use style="fill:#ff0000;stroke:#ff0000;" x="296.357355" xlink:href="#mec75421f79" y="164.631497"/>
    </g>
   </g>
   <g id="line2d_24">
    <g clip-path="url(#p54210ebac2)">
     <use style="fill:#ff0000;stroke:#ff0000;" x="357.76562" xlink:href="#mec75421f79" y="190.752615"/>
     <use style="fill:#ff0000;stroke:#ff0000;" x="330.524628" xlink:href="#mec75421f79" y="182.102115"/>
     <use style="fill:#ff0000;stroke:#ff0000;" x="318.385785" xlink:href="#mec75421f79" y="171.557551"/>
     <use style="fill:#ff0000;stroke:#ff0000;" x="300.427438" xlink:href="#mec75421f79" y="143.514099"/>
     <use style="fill:#ff0000;stroke:#ff0000;" x="309.995702" xlink:href="#mec75421f79" y="151.966712"/>
    </g>
   </g>
   <g id="line2d_25">
    <g clip-path="url(#p54210ebac2)">
     <use style="fill:#ff0000;stroke:#ff0000;" x="336.558347" xlink:href="#mec75421f79" y="181.282296"/>
     <use style="fill:#ff0000;stroke:#ff0000;" x="327.24" xlink:href="#mec75421f79" y="135.994383"/>
    </g>
   </g>
   <g id="line2d_26">
    <g clip-path="url(#p54210ebac2)">
     <use style="fill:#ff0000;stroke:#ff0000;" x="340.34281" xlink:href="#mec75421f79" y="170.681193"/>
     <use style="fill:#ff0000;stroke:#ff0000;" x="331.238678" xlink:href="#mec75421f79" y="66.96"/>
    </g>
   </g>
   <g id="line2d_27">
    <g clip-path="url(#p54210ebac2)">
     <use style="fill:#ff0000;stroke:#ff0000;" x="341.306777" xlink:href="#mec75421f79" y="159.938742"/>
    </g>
   </g>
   <g id="line2d_28"/>
   <g id="line2d_29"/>
   <g id="line2d_30"/>
   <g id="line2d_31"/>
   <g id="line2d_32"/>
   <g id="line2d_33"/>
   <g id="line2d_34"/>
   <g id="line2d_35"/>
   <g id="line2d_36"/>
   <g id="line2d_37"/>
   <g id="line2d_38"/>
   <g id="line2d_39"/>
   <g id="line2d_40"/>
   <g id="line2d_41"/>
   <g id="line2d_42"/>
   <g id="line2d_43"/>
   <g id="line2d_44"/>
   <g id="line2d_45"/>
   <g id="line2d_46"/>
   <g id="line2d_47"/>
   <g id="line2d_48"/>
   <g id="line2d_49"/>
   <g id="line2d_50"/>
   <g id="line2d_51"/>
   <g id="patch_3">
    <path d="M 54 384.48 
L 54 51.84 
" style="fill:none;stroke:#000000;stroke-linecap:square;stroke-linejoin:miter;stroke-width:0.8;"/>
   </g>
   <g id="patch_4">
    <path d="M 388.8 384.48 
L 388.8 51.84 
" style="fill:none;stroke:#000000;stroke-linecap:square;stroke-linejoin:miter;stroke-width:0.8;"/>
   </g>
   <g id="patch_5">
    <path d="M 54 384.48 
L 388.8 384.48 
" style="fill:none;stroke:#000000;stroke-linecap:square;stroke-linejoin:miter;stroke-width:0.8;"/>
   </g>
   <g id="patch_6">
    <path d="M 54 51.84 
L 388.8 51.84 
" style="fill:none;stroke:#000000;stroke-linecap:square;stroke-linejoin:miter;stroke-width:0.8;"/>
   </g>
  </g>
 </g>
 <defs>
  <clipPath id="p54210ebac2">
   <rect height="332.64" width="334.8" x="54" y="51.84"/>
  </clipPath>
 </defs>
</svg>
