<?xml version="1.0" encoding="utf-8" standalone="no"?>
<!DOCTYPE svg PUBLIC "-//W3C//DTD SVG 1.1//EN"
  "http://www.w3.org/Graphics/SVG/1.1/DTD/svg11.dtd">
<!-- Created with matplotlib (https://matplotlib.org/) -->
<svg height="432pt" version="1.1" viewBox="0 0 432 432" width="432pt" xmlns="http://www.w3.org/2000/svg" xmlns:xlink="http://www.w3.org/1999/xlink">
 <defs>
  <style type="text/css">
*{stroke-linecap:butt;stroke-linejoin:round;}
  </style>
 </defs>
 <g id="figure_1">
  <g id="patch_1">
   <path d="M 0 432 
L 432 432 
L 432 0 
L 0 0 
z
" style="fill:#ffffff;"/>
  </g>
  <g id="axes_1">
   <g id="patch_2">
    <path d="M 54 384.48 
L 388.8 384.48 
L 388.8 51.84 
L 54 51.84 
z
" style="fill:#ffffff;"/>
   </g>
   <g id="matplotlib.axis_1">
    <g id="xtick_1">
     <g id="line2d_1">
      <defs>
       <path d="M 0 0 
L 0 3.5 
" id="m363d66c67b" style="stroke:#000000;stroke-width:0.8;"/>
      </defs>
      <g>
       <use style="stroke:#000000;stroke-width:0.8;" x="103.09254" xlink:href="#m363d66c67b" y="384.48"/>
      </g>
     </g>
     <g id="text_1">
      <!-- 175000 -->
      <defs>
       <path d="M 12.40625 8.296875 
L 28.515625 8.296875 
L 28.515625 63.921875 
L 10.984375 60.40625 
L 10.984375 69.390625 
L 28.421875 72.90625 
L 38.28125 72.90625 
L 38.28125 8.296875 
L 54.390625 8.296875 
L 54.390625 0 
L 12.40625 0 
z
" id="DejaVuSans-49"/>
       <path d="M 8.203125 72.90625 
L 55.078125 72.90625 
L 55.078125 68.703125 
L 28.609375 0 
L 18.3125 0 
L 43.21875 64.59375 
L 8.203125 64.59375 
z
" id="DejaVuSans-55"/>
       <path d="M 10.796875 72.90625 
L 49.515625 72.90625 
L 49.515625 64.59375 
L 19.828125 64.59375 
L 19.828125 46.734375 
Q 21.96875 47.46875 24.109375 47.828125 
Q 26.265625 48.1875 28.421875 48.1875 
Q 40.625 48.1875 47.75 41.5 
Q 54.890625 34.8125 54.890625 23.390625 
Q 54.890625 11.625 47.5625 5.09375 
Q 40.234375 -1.421875 26.90625 -1.421875 
Q 22.3125 -1.421875 17.546875 -0.640625 
Q 12.796875 0.140625 7.71875 1.703125 
L 7.71875 11.625 
Q 12.109375 9.234375 16.796875 8.0625 
Q 21.484375 6.890625 26.703125 6.890625 
Q 35.15625 6.890625 40.078125 11.328125 
Q 45.015625 15.765625 45.015625 23.390625 
Q 45.015625 31 40.078125 35.4375 
Q 35.15625 39.890625 26.703125 39.890625 
Q 22.75 39.890625 18.8125 39.015625 
Q 14.890625 38.140625 10.796875 36.28125 
z
" id="DejaVuSans-53"/>
       <path d="M 31.78125 66.40625 
Q 24.171875 66.40625 20.328125 58.90625 
Q 16.5 51.421875 16.5 36.375 
Q 16.5 21.390625 20.328125 13.890625 
Q 24.171875 6.390625 31.78125 6.390625 
Q 39.453125 6.390625 43.28125 13.890625 
Q 47.125 21.390625 47.125 36.375 
Q 47.125 51.421875 43.28125 58.90625 
Q 39.453125 66.40625 31.78125 66.40625 
z
M 31.78125 74.21875 
Q 44.046875 74.21875 50.515625 64.515625 
Q 56.984375 54.828125 56.984375 36.375 
Q 56.984375 17.96875 50.515625 8.265625 
Q 44.046875 -1.421875 31.78125 -1.421875 
Q 19.53125 -1.421875 13.0625 8.265625 
Q 6.59375 17.96875 6.59375 36.375 
Q 6.59375 54.828125 13.0625 64.515625 
Q 19.53125 74.21875 31.78125 74.21875 
z
" id="DejaVuSans-48"/>
      </defs>
      <g transform="translate(84.00504 399.078438)scale(0.1 -0.1)">
       <use xlink:href="#DejaVuSans-49"/>
       <use x="63.623047" xlink:href="#DejaVuSans-55"/>
       <use x="127.246094" xlink:href="#DejaVuSans-53"/>
       <use x="190.869141" xlink:href="#DejaVuSans-48"/>
       <use x="254.492188" xlink:href="#DejaVuSans-48"/>
       <use x="318.115234" xlink:href="#DejaVuSans-48"/>
      </g>
     </g>
    </g>
    <g id="xtick_2">
     <g id="line2d_2">
      <g>
       <use style="stroke:#000000;stroke-width:0.8;" x="153.651284" xlink:href="#m363d66c67b" y="384.48"/>
      </g>
     </g>
     <g id="text_2">
      <!-- 176000 -->
      <defs>
       <path d="M 33.015625 40.375 
Q 26.375 40.375 22.484375 35.828125 
Q 18.609375 31.296875 18.609375 23.390625 
Q 18.609375 15.53125 22.484375 10.953125 
Q 26.375 6.390625 33.015625 6.390625 
Q 39.65625 6.390625 43.53125 10.953125 
Q 47.40625 15.53125 47.40625 23.390625 
Q 47.40625 31.296875 43.53125 35.828125 
Q 39.65625 40.375 33.015625 40.375 
z
M 52.59375 71.296875 
L 52.59375 62.3125 
Q 48.875 64.0625 45.09375 64.984375 
Q 41.3125 65.921875 37.59375 65.921875 
Q 27.828125 65.921875 22.671875 59.328125 
Q 17.53125 52.734375 16.796875 39.40625 
Q 19.671875 43.65625 24.015625 45.921875 
Q 28.375 48.1875 33.59375 48.1875 
Q 44.578125 48.1875 50.953125 41.515625 
Q 57.328125 34.859375 57.328125 23.390625 
Q 57.328125 12.15625 50.6875 5.359375 
Q 44.046875 -1.421875 33.015625 -1.421875 
Q 20.359375 -1.421875 13.671875 8.265625 
Q 6.984375 17.96875 6.984375 36.375 
Q 6.984375 53.65625 15.1875 63.9375 
Q 23.390625 74.21875 37.203125 74.21875 
Q 40.921875 74.21875 44.703125 73.484375 
Q 48.484375 72.75 52.59375 71.296875 
z
" id="DejaVuSans-54"/>
      </defs>
      <g transform="translate(134.563784 399.078438)scale(0.1 -0.1)">
       <use xlink:href="#DejaVuSans-49"/>
       <use x="63.623047" xlink:href="#DejaVuSans-55"/>
       <use x="127.246094" xlink:href="#DejaVuSans-54"/>
       <use x="190.869141" xlink:href="#DejaVuSans-48"/>
       <use x="254.492188" xlink:href="#DejaVuSans-48"/>
       <use x="318.115234" xlink:href="#DejaVuSans-48"/>
      </g>
     </g>
    </g>
    <g id="xtick_3">
     <g id="line2d_3">
      <g>
       <use style="stroke:#000000;stroke-width:0.8;" x="204.210027" xlink:href="#m363d66c67b" y="384.48"/>
      </g>
     </g>
     <g id="text_3">
      <!-- 177000 -->
      <g transform="translate(185.122527 399.078438)scale(0.1 -0.1)">
       <use xlink:href="#DejaVuSans-49"/>
       <use x="63.623047" xlink:href="#DejaVuSans-55"/>
       <use x="127.246094" xlink:href="#DejaVuSans-55"/>
       <use x="190.869141" xlink:href="#DejaVuSans-48"/>
       <use x="254.492188" xlink:href="#DejaVuSans-48"/>
       <use x="318.115234" xlink:href="#DejaVuSans-48"/>
      </g>
     </g>
    </g>
    <g id="xtick_4">
     <g id="line2d_4">
      <g>
       <use style="stroke:#000000;stroke-width:0.8;" x="254.768771" xlink:href="#m363d66c67b" y="384.48"/>
      </g>
     </g>
     <g id="text_4">
      <!-- 178000 -->
      <defs>
       <path d="M 31.78125 34.625 
Q 24.75 34.625 20.71875 30.859375 
Q 16.703125 27.09375 16.703125 20.515625 
Q 16.703125 13.921875 20.71875 10.15625 
Q 24.75 6.390625 31.78125 6.390625 
Q 38.8125 6.390625 42.859375 10.171875 
Q 46.921875 13.96875 46.921875 20.515625 
Q 46.921875 27.09375 42.890625 30.859375 
Q 38.875 34.625 31.78125 34.625 
z
M 21.921875 38.8125 
Q 15.578125 40.375 12.03125 44.71875 
Q 8.5 49.078125 8.5 55.328125 
Q 8.5 64.0625 14.71875 69.140625 
Q 20.953125 74.21875 31.78125 74.21875 
Q 42.671875 74.21875 48.875 69.140625 
Q 55.078125 64.0625 55.078125 55.328125 
Q 55.078125 49.078125 51.53125 44.71875 
Q 48 40.375 41.703125 38.8125 
Q 48.828125 37.15625 52.796875 32.3125 
Q 56.78125 27.484375 56.78125 20.515625 
Q 56.78125 9.90625 50.3125 4.234375 
Q 43.84375 -1.421875 31.78125 -1.421875 
Q 19.734375 -1.421875 13.25 4.234375 
Q 6.78125 9.90625 6.78125 20.515625 
Q 6.78125 27.484375 10.78125 32.3125 
Q 14.796875 37.15625 21.921875 38.8125 
z
M 18.3125 54.390625 
Q 18.3125 48.734375 21.84375 45.5625 
Q 25.390625 42.390625 31.78125 42.390625 
Q 38.140625 42.390625 41.71875 45.5625 
Q 45.3125 48.734375 45.3125 54.390625 
Q 45.3125 60.0625 41.71875 63.234375 
Q 38.140625 66.40625 31.78125 66.40625 
Q 25.390625 66.40625 21.84375 63.234375 
Q 18.3125 60.0625 18.3125 54.390625 
z
" id="DejaVuSans-56"/>
      </defs>
      <g transform="translate(235.681271 399.078438)scale(0.1 -0.1)">
       <use xlink:href="#DejaVuSans-49"/>
       <use x="63.623047" xlink:href="#DejaVuSans-55"/>
       <use x="127.246094" xlink:href="#DejaVuSans-56"/>
       <use x="190.869141" xlink:href="#DejaVuSans-48"/>
       <use x="254.492188" xlink:href="#DejaVuSans-48"/>
       <use x="318.115234" xlink:href="#DejaVuSans-48"/>
      </g>
     </g>
    </g>
    <g id="xtick_5">
     <g id="line2d_5">
      <g>
       <use style="stroke:#000000;stroke-width:0.8;" x="305.327514" xlink:href="#m363d66c67b" y="384.48"/>
      </g>
     </g>
     <g id="text_5">
      <!-- 179000 -->
      <defs>
       <path d="M 10.984375 1.515625 
L 10.984375 10.5 
Q 14.703125 8.734375 18.5 7.8125 
Q 22.3125 6.890625 25.984375 6.890625 
Q 35.75 6.890625 40.890625 13.453125 
Q 46.046875 20.015625 46.78125 33.40625 
Q 43.953125 29.203125 39.59375 26.953125 
Q 35.25 24.703125 29.984375 24.703125 
Q 19.046875 24.703125 12.671875 31.3125 
Q 6.296875 37.9375 6.296875 49.421875 
Q 6.296875 60.640625 12.9375 67.421875 
Q 19.578125 74.21875 30.609375 74.21875 
Q 43.265625 74.21875 49.921875 64.515625 
Q 56.59375 54.828125 56.59375 36.375 
Q 56.59375 19.140625 48.40625 8.859375 
Q 40.234375 -1.421875 26.421875 -1.421875 
Q 22.703125 -1.421875 18.890625 -0.6875 
Q 15.09375 0.046875 10.984375 1.515625 
z
M 30.609375 32.421875 
Q 37.25 32.421875 41.125 36.953125 
Q 45.015625 41.5 45.015625 49.421875 
Q 45.015625 57.28125 41.125 61.84375 
Q 37.25 66.40625 30.609375 66.40625 
Q 23.96875 66.40625 20.09375 61.84375 
Q 16.21875 57.28125 16.21875 49.421875 
Q 16.21875 41.5 20.09375 36.953125 
Q 23.96875 32.421875 30.609375 32.421875 
z
" id="DejaVuSans-57"/>
      </defs>
      <g transform="translate(286.240014 399.078438)scale(0.1 -0.1)">
       <use xlink:href="#DejaVuSans-49"/>
       <use x="63.623047" xlink:href="#DejaVuSans-55"/>
       <use x="127.246094" xlink:href="#DejaVuSans-57"/>
       <use x="190.869141" xlink:href="#DejaVuSans-48"/>
       <use x="254.492188" xlink:href="#DejaVuSans-48"/>
       <use x="318.115234" xlink:href="#DejaVuSans-48"/>
      </g>
     </g>
    </g>
    <g id="xtick_6">
     <g id="line2d_6">
      <g>
       <use style="stroke:#000000;stroke-width:0.8;" x="355.886258" xlink:href="#m363d66c67b" y="384.48"/>
      </g>
     </g>
     <g id="text_6">
      <!-- 180000 -->
      <g transform="translate(336.798758 399.078438)scale(0.1 -0.1)">
       <use xlink:href="#DejaVuSans-49"/>
       <use x="63.623047" xlink:href="#DejaVuSans-56"/>
       <use x="127.246094" xlink:href="#DejaVuSans-48"/>
       <use x="190.869141" xlink:href="#DejaVuSans-48"/>
       <use x="254.492188" xlink:href="#DejaVuSans-48"/>
       <use x="318.115234" xlink:href="#DejaVuSans-48"/>
      </g>
     </g>
    </g>
   </g>
   <g id="matplotlib.axis_2">
    <g id="ytick_1">
     <g id="line2d_7">
      <defs>
       <path d="M 0 0 
L -3.5 0 
" id="mda25c6943a" style="stroke:#000000;stroke-width:0.8;"/>
      </defs>
      <g>
       <use style="stroke:#000000;stroke-width:0.8;" x="54" xlink:href="#mda25c6943a" y="336.442019"/>
      </g>
     </g>
     <g id="text_7">
      <!-- 175000 -->
      <g transform="translate(8.825 340.241238)scale(0.1 -0.1)">
       <use xlink:href="#DejaVuSans-49"/>
       <use x="63.623047" xlink:href="#DejaVuSans-55"/>
       <use x="127.246094" xlink:href="#DejaVuSans-53"/>
       <use x="190.869141" xlink:href="#DejaVuSans-48"/>
       <use x="254.492188" xlink:href="#DejaVuSans-48"/>
       <use x="318.115234" xlink:href="#DejaVuSans-48"/>
      </g>
     </g>
    </g>
    <g id="ytick_2">
     <g id="line2d_8">
      <g>
       <use style="stroke:#000000;stroke-width:0.8;" x="54" xlink:href="#mda25c6943a" y="282.121918"/>
      </g>
     </g>
     <g id="text_8">
      <!-- 176000 -->
      <g transform="translate(8.825 285.921137)scale(0.1 -0.1)">
       <use xlink:href="#DejaVuSans-49"/>
       <use x="63.623047" xlink:href="#DejaVuSans-55"/>
       <use x="127.246094" xlink:href="#DejaVuSans-54"/>
       <use x="190.869141" xlink:href="#DejaVuSans-48"/>
       <use x="254.492188" xlink:href="#DejaVuSans-48"/>
       <use x="318.115234" xlink:href="#DejaVuSans-48"/>
      </g>
     </g>
    </g>
    <g id="ytick_3">
     <g id="line2d_9">
      <g>
       <use style="stroke:#000000;stroke-width:0.8;" x="54" xlink:href="#mda25c6943a" y="227.801818"/>
      </g>
     </g>
     <g id="text_9">
      <!-- 177000 -->
      <g transform="translate(8.825 231.601037)scale(0.1 -0.1)">
       <use xlink:href="#DejaVuSans-49"/>
       <use x="63.623047" xlink:href="#DejaVuSans-55"/>
       <use x="127.246094" xlink:href="#DejaVuSans-55"/>
       <use x="190.869141" xlink:href="#DejaVuSans-48"/>
       <use x="254.492188" xlink:href="#DejaVuSans-48"/>
       <use x="318.115234" xlink:href="#DejaVuSans-48"/>
      </g>
     </g>
    </g>
    <g id="ytick_4">
     <g id="line2d_10">
      <g>
       <use style="stroke:#000000;stroke-width:0.8;" x="54" xlink:href="#mda25c6943a" y="173.481717"/>
      </g>
     </g>
     <g id="text_10">
      <!-- 178000 -->
      <g transform="translate(8.825 177.280936)scale(0.1 -0.1)">
       <use xlink:href="#DejaVuSans-49"/>
       <use x="63.623047" xlink:href="#DejaVuSans-55"/>
       <use x="127.246094" xlink:href="#DejaVuSans-56"/>
       <use x="190.869141" xlink:href="#DejaVuSans-48"/>
       <use x="254.492188" xlink:href="#DejaVuSans-48"/>
       <use x="318.115234" xlink:href="#DejaVuSans-48"/>
      </g>
     </g>
    </g>
    <g id="ytick_5">
     <g id="line2d_11">
      <g>
       <use style="stroke:#000000;stroke-width:0.8;" x="54" xlink:href="#mda25c6943a" y="119.161617"/>
      </g>
     </g>
     <g id="text_11">
      <!-- 179000 -->
      <g transform="translate(8.825 122.960835)scale(0.1 -0.1)">
       <use xlink:href="#DejaVuSans-49"/>
       <use x="63.623047" xlink:href="#DejaVuSans-55"/>
       <use x="127.246094" xlink:href="#DejaVuSans-57"/>
       <use x="190.869141" xlink:href="#DejaVuSans-48"/>
       <use x="254.492188" xlink:href="#DejaVuSans-48"/>
       <use x="318.115234" xlink:href="#DejaVuSans-48"/>
      </g>
     </g>
    </g>
    <g id="ytick_6">
     <g id="line2d_12">
      <g>
       <use style="stroke:#000000;stroke-width:0.8;" x="54" xlink:href="#mda25c6943a" y="64.841516"/>
      </g>
     </g>
     <g id="text_12">
      <!-- 180000 -->
      <g transform="translate(8.825 68.640735)scale(0.1 -0.1)">
       <use xlink:href="#DejaVuSans-49"/>
       <use x="63.623047" xlink:href="#DejaVuSans-56"/>
       <use x="127.246094" xlink:href="#DejaVuSans-48"/>
       <use x="190.869141" xlink:href="#DejaVuSans-48"/>
       <use x="254.492188" xlink:href="#DejaVuSans-48"/>
       <use x="318.115234" xlink:href="#DejaVuSans-48"/>
      </g>
     </g>
    </g>
   </g>
   <g id="line2d_13">
    <defs>
     <path d="M -3 3 
L 3 3 
L 3 -3 
L -3 -3 
z
" id="m2bf3e928e7" style="stroke:#008000;stroke-linejoin:miter;"/>
    </defs>
    <g clip-path="url(#p87395bac1f)">
     <use style="fill:#008000;stroke:#008000;stroke-linejoin:miter;" x="76.599758" xlink:href="#m2bf3e928e7" y="369.36"/>
     <use style="fill:#008000;stroke:#008000;stroke-linejoin:miter;" x="69.218182" xlink:href="#m2bf3e928e7" y="359.147821"/>
    </g>
   </g>
   <g id="line2d_14">
    <defs>
     <path d="M 0 1.5 
C 0.397805 1.5 0.77937 1.341951 1.06066 1.06066 
C 1.341951 0.77937 1.5 0.397805 1.5 0 
C 1.5 -0.397805 1.341951 -0.77937 1.06066 -1.06066 
C 0.77937 -1.341951 0.397805 -1.5 0 -1.5 
C -0.397805 -1.5 -0.77937 -1.341951 -1.06066 -1.06066 
C -1.341951 -0.77937 -1.5 -0.397805 -1.5 0 
C -1.5 0.397805 -1.341951 0.77937 -1.06066 1.06066 
C -0.77937 1.341951 -0.397805 1.5 0 1.5 
z
" id="mb289d369d2" style="stroke:#ff0000;"/>
    </defs>
    <g clip-path="url(#p87395bac1f)">
     <use style="fill:#ff0000;stroke:#ff0000;" x="158.100453" xlink:href="#mb289d369d2" y="318.027505"/>
     <use style="fill:#ff0000;stroke:#ff0000;" x="95.357052" xlink:href="#mb289d369d2" y="219.490842"/>
     <use style="fill:#ff0000;stroke:#ff0000;" x="106.581093" xlink:href="#mb289d369d2" y="316.126301"/>
    </g>
   </g>
   <g id="line2d_15">
    <g clip-path="url(#p87395bac1f)">
     <use style="fill:#ff0000;stroke:#ff0000;" x="178.576744" xlink:href="#mb289d369d2" y="316.397902"/>
     <use style="fill:#ff0000;stroke:#ff0000;" x="142.781154" xlink:href="#mb289d369d2" y="225.031493"/>
     <use style="fill:#ff0000;stroke:#ff0000;" x="146.825853" xlink:href="#mb289d369d2" y="271.746779"/>
     <use style="fill:#ff0000;stroke:#ff0000;" x="148.140381" xlink:href="#mb289d369d2" y="278.808392"/>
     <use style="fill:#ff0000;stroke:#ff0000;" x="145.056297" xlink:href="#mb289d369d2" y="248.389136"/>
     <use style="fill:#ff0000;stroke:#ff0000;" x="124.478889" xlink:href="#mb289d369d2" y="203.575053"/>
     <use style="fill:#ff0000;stroke:#ff0000;" x="106.73277" xlink:href="#mb289d369d2" y="201.72817"/>
    </g>
   </g>
   <g id="line2d_16">
    <g clip-path="url(#p87395bac1f)">
     <use style="fill:#ff0000;stroke:#ff0000;" x="184.694352" xlink:href="#mb289d369d2" y="307.380765"/>
     <use style="fill:#ff0000;stroke:#ff0000;" x="148.645968" xlink:href="#mb289d369d2" y="256.482831"/>
    </g>
   </g>
   <g id="line2d_17">
    <g clip-path="url(#p87395bac1f)">
     <use style="fill:#ff0000;stroke:#ff0000;" x="186.160556" xlink:href="#mb289d369d2" y="281.144157"/>
     <use style="fill:#ff0000;stroke:#ff0000;" x="204.816732" xlink:href="#mb289d369d2" y="298.798189"/>
     <use style="fill:#ff0000;stroke:#ff0000;" x="157.797101" xlink:href="#mb289d369d2" y="252.897704"/>
    </g>
   </g>
   <g id="line2d_18">
    <g clip-path="url(#p87395bac1f)">
     <use style="fill:#ff0000;stroke:#ff0000;" x="208.810873" xlink:href="#mb289d369d2" y="268.596213"/>
     <use style="fill:#ff0000;stroke:#ff0000;" x="178.32395" xlink:href="#mb289d369d2" y="207.32314"/>
     <use style="fill:#ff0000;stroke:#ff0000;" x="177.666687" xlink:href="#mb289d369d2" y="197.328241"/>
     <use style="fill:#ff0000;stroke:#ff0000;" x="173.470311" xlink:href="#mb289d369d2" y="159.195531"/>
     <use style="fill:#ff0000;stroke:#ff0000;" x="205.372878" xlink:href="#mb289d369d2" y="217.91556"/>
    </g>
   </g>
   <g id="line2d_19">
    <g clip-path="url(#p87395bac1f)">
     <use style="fill:#ff0000;stroke:#ff0000;" x="224.686318" xlink:href="#mb289d369d2" y="229.21414"/>
     <use style="fill:#ff0000;stroke:#ff0000;" x="234.848626" xlink:href="#mb289d369d2" y="248.280496"/>
     <use style="fill:#ff0000;stroke:#ff0000;" x="179.13289" xlink:href="#mb289d369d2" y="154.415362"/>
    </g>
   </g>
   <g id="line2d_20">
    <g clip-path="url(#p87395bac1f)">
     <use style="fill:#ff0000;stroke:#ff0000;" x="233.989127" xlink:href="#mb289d369d2" y="184.943258"/>
     <use style="fill:#ff0000;stroke:#ff0000;" x="246.982724" xlink:href="#mb289d369d2" y="233.451108"/>
     <use style="fill:#ff0000;stroke:#ff0000;" x="274.941709" xlink:href="#mb289d369d2" y="237.470796"/>
     <use style="fill:#ff0000;stroke:#ff0000;" x="235.859801" xlink:href="#mb289d369d2" y="216.394597"/>
     <use style="fill:#ff0000;stroke:#ff0000;" x="306.6926" xlink:href="#mb289d369d2" y="240.404081"/>
     <use style="fill:#ff0000;stroke:#ff0000;" x="228.377107" xlink:href="#mb289d369d2" y="109.492639"/>
    </g>
   </g>
   <g id="line2d_21">
    <g clip-path="url(#p87395bac1f)">
     <use style="fill:#ff0000;stroke:#ff0000;" x="261.341407" xlink:href="#mb289d369d2" y="216.557557"/>
     <use style="fill:#ff0000;stroke:#ff0000;" x="306.642042" xlink:href="#mb289d369d2" y="233.125188"/>
     <use style="fill:#ff0000;stroke:#ff0000;" x="283.38502" xlink:href="#mb289d369d2" y="219.001962"/>
     <use style="fill:#ff0000;stroke:#ff0000;" x="238.134944" xlink:href="#mb289d369d2" y="184.182777"/>
     <use style="fill:#ff0000;stroke:#ff0000;" x="248.448928" xlink:href="#mb289d369d2" y="199.989926"/>
     <use style="fill:#ff0000;stroke:#ff0000;" x="254.465418" xlink:href="#mb289d369d2" y="210.962587"/>
    </g>
   </g>
   <g id="line2d_22">
    <g clip-path="url(#p87395bac1f)">
     <use style="fill:#ff0000;stroke:#ff0000;" x="313.821383" xlink:href="#mb289d369d2" y="228.290699"/>
     <use style="fill:#ff0000;stroke:#ff0000;" x="299.968288" xlink:href="#mb289d369d2" y="214.710674"/>
     <use style="fill:#ff0000;stroke:#ff0000;" x="287.884748" xlink:href="#mb289d369d2" y="213.569951"/>
     <use style="fill:#ff0000;stroke:#ff0000;" x="238.337179" xlink:href="#mb289d369d2" y="180.814931"/>
     <use style="fill:#ff0000;stroke:#ff0000;" x="282.929991" xlink:href="#mb289d369d2" y="190.91847"/>
     <use style="fill:#ff0000;stroke:#ff0000;" x="278.632498" xlink:href="#mb289d369d2" y="188.311105"/>
    </g>
   </g>
   <g id="line2d_23">
    <g clip-path="url(#p87395bac1f)">
     <use style="fill:#ff0000;stroke:#ff0000;" x="239.651706" xlink:href="#mb289d369d2" y="147.245109"/>
     <use style="fill:#ff0000;stroke:#ff0000;" x="246.881607" xlink:href="#mb289d369d2" y="170.059551"/>
     <use style="fill:#ff0000;stroke:#ff0000;" x="268.520749" xlink:href="#mb289d369d2" y="179.185328"/>
    </g>
   </g>
   <g id="line2d_24">
    <g clip-path="url(#p87395bac1f)">
     <use style="fill:#ff0000;stroke:#ff0000;" x="269.127454" xlink:href="#mb289d369d2" y="163.758419"/>
    </g>
   </g>
   <g id="line2d_25">
    <g clip-path="url(#p87395bac1f)">
     <use style="fill:#ff0000;stroke:#ff0000;" x="296.075264" xlink:href="#mb289d369d2" y="96.238534"/>
     <use style="fill:#ff0000;stroke:#ff0000;" x="373.581818" xlink:href="#mb289d369d2" y="121.388741"/>
    </g>
   </g>
   <g id="line2d_26">
    <g clip-path="url(#p87395bac1f)">
     <use style="fill:#ff0000;stroke:#ff0000;" x="362.307218" xlink:href="#mb289d369d2" y="66.96"/>
    </g>
   </g>
   <g id="line2d_27"/>
   <g id="line2d_28"/>
   <g id="line2d_29"/>
   <g id="line2d_30"/>
   <g id="line2d_31"/>
   <g id="line2d_32"/>
   <g id="line2d_33"/>
   <g id="line2d_34"/>
   <g id="line2d_35"/>
   <g id="line2d_36"/>
   <g id="line2d_37"/>
   <g id="line2d_38"/>
   <g id="line2d_39"/>
   <g id="line2d_40"/>
   <g id="line2d_41"/>
   <g id="line2d_42"/>
   <g id="line2d_43"/>
   <g id="line2d_44"/>
   <g id="line2d_45"/>
   <g id="line2d_46"/>
   <g id="line2d_47"/>
   <g id="line2d_48"/>
   <g id="line2d_49"/>
   <g id="line2d_50"/>
   <g id="line2d_51"/>
   <g id="line2d_52"/>
   <g id="line2d_53"/>
   <g id="line2d_54"/>
   <g id="line2d_55"/>
   <g id="line2d_56"/>
   <g id="line2d_57"/>
   <g id="line2d_58"/>
   <g id="line2d_59"/>
   <g id="line2d_60"/>
   <g id="line2d_61"/>
   <g id="line2d_62"/>
   <g id="patch_3">
    <path d="M 54 384.48 
L 54 51.84 
" style="fill:none;stroke:#000000;stroke-linecap:square;stroke-linejoin:miter;stroke-width:0.8;"/>
   </g>
   <g id="patch_4">
    <path d="M 388.8 384.48 
L 388.8 51.84 
" style="fill:none;stroke:#000000;stroke-linecap:square;stroke-linejoin:miter;stroke-width:0.8;"/>
   </g>
   <g id="patch_5">
    <path d="M 54 384.48 
L 388.8 384.48 
" style="fill:none;stroke:#000000;stroke-linecap:square;stroke-linejoin:miter;stroke-width:0.8;"/>
   </g>
   <g id="patch_6">
    <path d="M 54 51.84 
L 388.8 51.84 
" style="fill:none;stroke:#000000;stroke-linecap:square;stroke-linejoin:miter;stroke-width:0.8;"/>
   </g>
  </g>
 </g>
 <defs>
  <clipPath id="p87395bac1f">
   <rect height="332.64" width="334.8" x="54" y="51.84"/>
  </clipPath>
 </defs>
</svg>
