<?xml version="1.0" encoding="utf-8" standalone="no"?>
<!DOCTYPE svg PUBLIC "-//W3C//DTD SVG 1.1//EN"
  "http://www.w3.org/Graphics/SVG/1.1/DTD/svg11.dtd">
<!-- Created with matplotlib (https://matplotlib.org/) -->
<svg height="432pt" version="1.1" viewBox="0 0 432 432" width="432pt" xmlns="http://www.w3.org/2000/svg" xmlns:xlink="http://www.w3.org/1999/xlink">
 <defs>
  <style type="text/css">
*{stroke-linecap:butt;stroke-linejoin:round;}
  </style>
 </defs>
 <g id="figure_1">
  <g id="patch_1">
   <path d="M 0 432 
L 432 432 
L 432 0 
L 0 0 
z
" style="fill:#ffffff;"/>
  </g>
  <g id="axes_1">
   <g id="patch_2">
    <path d="M 54 384.48 
L 388.8 384.48 
L 388.8 51.84 
L 54 51.84 
z
" style="fill:#ffffff;"/>
   </g>
   <g id="matplotlib.axis_1">
    <g id="xtick_1">
     <g id="line2d_1">
      <defs>
       <path d="M 0 0 
L 0 3.5 
" id="m75b2f15855" style="stroke:#000000;stroke-width:0.8;"/>
      </defs>
      <g>
       <use style="stroke:#000000;stroke-width:0.8;" x="83.814829" xlink:href="#m75b2f15855" y="384.48"/>
      </g>
     </g>
     <g id="text_1">
      <!-- 172000 -->
      <defs>
       <path d="M 12.40625 8.296875 
L 28.515625 8.296875 
L 28.515625 63.921875 
L 10.984375 60.40625 
L 10.984375 69.390625 
L 28.421875 72.90625 
L 38.28125 72.90625 
L 38.28125 8.296875 
L 54.390625 8.296875 
L 54.390625 0 
L 12.40625 0 
z
" id="DejaVuSans-49"/>
       <path d="M 8.203125 72.90625 
L 55.078125 72.90625 
L 55.078125 68.703125 
L 28.609375 0 
L 18.3125 0 
L 43.21875 64.59375 
L 8.203125 64.59375 
z
" id="DejaVuSans-55"/>
       <path d="M 19.1875 8.296875 
L 53.609375 8.296875 
L 53.609375 0 
L 7.328125 0 
L 7.328125 8.296875 
Q 12.9375 14.109375 22.625 23.890625 
Q 32.328125 33.6875 34.8125 36.53125 
Q 39.546875 41.84375 41.421875 45.53125 
Q 43.3125 49.21875 43.3125 52.78125 
Q 43.3125 58.59375 39.234375 62.25 
Q 35.15625 65.921875 28.609375 65.921875 
Q 23.96875 65.921875 18.8125 64.3125 
Q 13.671875 62.703125 7.8125 59.421875 
L 7.8125 69.390625 
Q 13.765625 71.78125 18.9375 73 
Q 24.125 74.21875 28.421875 74.21875 
Q 39.75 74.21875 46.484375 68.546875 
Q 53.21875 62.890625 53.21875 53.421875 
Q 53.21875 48.921875 51.53125 44.890625 
Q 49.859375 40.875 45.40625 35.40625 
Q 44.1875 33.984375 37.640625 27.21875 
Q 31.109375 20.453125 19.1875 8.296875 
z
" id="DejaVuSans-50"/>
       <path d="M 31.78125 66.40625 
Q 24.171875 66.40625 20.328125 58.90625 
Q 16.5 51.421875 16.5 36.375 
Q 16.5 21.390625 20.328125 13.890625 
Q 24.171875 6.390625 31.78125 6.390625 
Q 39.453125 6.390625 43.28125 13.890625 
Q 47.125 21.390625 47.125 36.375 
Q 47.125 51.421875 43.28125 58.90625 
Q 39.453125 66.40625 31.78125 66.40625 
z
M 31.78125 74.21875 
Q 44.046875 74.21875 50.515625 64.515625 
Q 56.984375 54.828125 56.984375 36.375 
Q 56.984375 17.96875 50.515625 8.265625 
Q 44.046875 -1.421875 31.78125 -1.421875 
Q 19.53125 -1.421875 13.0625 8.265625 
Q 6.59375 17.96875 6.59375 36.375 
Q 6.59375 54.828125 13.0625 64.515625 
Q 19.53125 74.21875 31.78125 74.21875 
z
" id="DejaVuSans-48"/>
      </defs>
      <g transform="translate(64.727329 399.078438)scale(0.1 -0.1)">
       <use xlink:href="#DejaVuSans-49"/>
       <use x="63.623047" xlink:href="#DejaVuSans-55"/>
       <use x="127.246094" xlink:href="#DejaVuSans-50"/>
       <use x="190.869141" xlink:href="#DejaVuSans-48"/>
       <use x="254.492188" xlink:href="#DejaVuSans-48"/>
       <use x="318.115234" xlink:href="#DejaVuSans-48"/>
      </g>
     </g>
    </g>
    <g id="xtick_2">
     <g id="line2d_2">
      <g>
       <use style="stroke:#000000;stroke-width:0.8;" x="146.596107" xlink:href="#m75b2f15855" y="384.48"/>
      </g>
     </g>
     <g id="text_2">
      <!-- 174000 -->
      <defs>
       <path d="M 37.796875 64.3125 
L 12.890625 25.390625 
L 37.796875 25.390625 
z
M 35.203125 72.90625 
L 47.609375 72.90625 
L 47.609375 25.390625 
L 58.015625 25.390625 
L 58.015625 17.1875 
L 47.609375 17.1875 
L 47.609375 0 
L 37.796875 0 
L 37.796875 17.1875 
L 4.890625 17.1875 
L 4.890625 26.703125 
z
" id="DejaVuSans-52"/>
      </defs>
      <g transform="translate(127.508607 399.078438)scale(0.1 -0.1)">
       <use xlink:href="#DejaVuSans-49"/>
       <use x="63.623047" xlink:href="#DejaVuSans-55"/>
       <use x="127.246094" xlink:href="#DejaVuSans-52"/>
       <use x="190.869141" xlink:href="#DejaVuSans-48"/>
       <use x="254.492188" xlink:href="#DejaVuSans-48"/>
       <use x="318.115234" xlink:href="#DejaVuSans-48"/>
      </g>
     </g>
    </g>
    <g id="xtick_3">
     <g id="line2d_3">
      <g>
       <use style="stroke:#000000;stroke-width:0.8;" x="209.377385" xlink:href="#m75b2f15855" y="384.48"/>
      </g>
     </g>
     <g id="text_3">
      <!-- 176000 -->
      <defs>
       <path d="M 33.015625 40.375 
Q 26.375 40.375 22.484375 35.828125 
Q 18.609375 31.296875 18.609375 23.390625 
Q 18.609375 15.53125 22.484375 10.953125 
Q 26.375 6.390625 33.015625 6.390625 
Q 39.65625 6.390625 43.53125 10.953125 
Q 47.40625 15.53125 47.40625 23.390625 
Q 47.40625 31.296875 43.53125 35.828125 
Q 39.65625 40.375 33.015625 40.375 
z
M 52.59375 71.296875 
L 52.59375 62.3125 
Q 48.875 64.0625 45.09375 64.984375 
Q 41.3125 65.921875 37.59375 65.921875 
Q 27.828125 65.921875 22.671875 59.328125 
Q 17.53125 52.734375 16.796875 39.40625 
Q 19.671875 43.65625 24.015625 45.921875 
Q 28.375 48.1875 33.59375 48.1875 
Q 44.578125 48.1875 50.953125 41.515625 
Q 57.328125 34.859375 57.328125 23.390625 
Q 57.328125 12.15625 50.6875 5.359375 
Q 44.046875 -1.421875 33.015625 -1.421875 
Q 20.359375 -1.421875 13.671875 8.265625 
Q 6.984375 17.96875 6.984375 36.375 
Q 6.984375 53.65625 15.1875 63.9375 
Q 23.390625 74.21875 37.203125 74.21875 
Q 40.921875 74.21875 44.703125 73.484375 
Q 48.484375 72.75 52.59375 71.296875 
z
" id="DejaVuSans-54"/>
      </defs>
      <g transform="translate(190.289885 399.078438)scale(0.1 -0.1)">
       <use xlink:href="#DejaVuSans-49"/>
       <use x="63.623047" xlink:href="#DejaVuSans-55"/>
       <use x="127.246094" xlink:href="#DejaVuSans-54"/>
       <use x="190.869141" xlink:href="#DejaVuSans-48"/>
       <use x="254.492188" xlink:href="#DejaVuSans-48"/>
       <use x="318.115234" xlink:href="#DejaVuSans-48"/>
      </g>
     </g>
    </g>
    <g id="xtick_4">
     <g id="line2d_4">
      <g>
       <use style="stroke:#000000;stroke-width:0.8;" x="272.158663" xlink:href="#m75b2f15855" y="384.48"/>
      </g>
     </g>
     <g id="text_4">
      <!-- 178000 -->
      <defs>
       <path d="M 31.78125 34.625 
Q 24.75 34.625 20.71875 30.859375 
Q 16.703125 27.09375 16.703125 20.515625 
Q 16.703125 13.921875 20.71875 10.15625 
Q 24.75 6.390625 31.78125 6.390625 
Q 38.8125 6.390625 42.859375 10.171875 
Q 46.921875 13.96875 46.921875 20.515625 
Q 46.921875 27.09375 42.890625 30.859375 
Q 38.875 34.625 31.78125 34.625 
z
M 21.921875 38.8125 
Q 15.578125 40.375 12.03125 44.71875 
Q 8.5 49.078125 8.5 55.328125 
Q 8.5 64.0625 14.71875 69.140625 
Q 20.953125 74.21875 31.78125 74.21875 
Q 42.671875 74.21875 48.875 69.140625 
Q 55.078125 64.0625 55.078125 55.328125 
Q 55.078125 49.078125 51.53125 44.71875 
Q 48 40.375 41.703125 38.8125 
Q 48.828125 37.15625 52.796875 32.3125 
Q 56.78125 27.484375 56.78125 20.515625 
Q 56.78125 9.90625 50.3125 4.234375 
Q 43.84375 -1.421875 31.78125 -1.421875 
Q 19.734375 -1.421875 13.25 4.234375 
Q 6.78125 9.90625 6.78125 20.515625 
Q 6.78125 27.484375 10.78125 32.3125 
Q 14.796875 37.15625 21.921875 38.8125 
z
M 18.3125 54.390625 
Q 18.3125 48.734375 21.84375 45.5625 
Q 25.390625 42.390625 31.78125 42.390625 
Q 38.140625 42.390625 41.71875 45.5625 
Q 45.3125 48.734375 45.3125 54.390625 
Q 45.3125 60.0625 41.71875 63.234375 
Q 38.140625 66.40625 31.78125 66.40625 
Q 25.390625 66.40625 21.84375 63.234375 
Q 18.3125 60.0625 18.3125 54.390625 
z
" id="DejaVuSans-56"/>
      </defs>
      <g transform="translate(253.071163 399.078438)scale(0.1 -0.1)">
       <use xlink:href="#DejaVuSans-49"/>
       <use x="63.623047" xlink:href="#DejaVuSans-55"/>
       <use x="127.246094" xlink:href="#DejaVuSans-56"/>
       <use x="190.869141" xlink:href="#DejaVuSans-48"/>
       <use x="254.492188" xlink:href="#DejaVuSans-48"/>
       <use x="318.115234" xlink:href="#DejaVuSans-48"/>
      </g>
     </g>
    </g>
    <g id="xtick_5">
     <g id="line2d_5">
      <g>
       <use style="stroke:#000000;stroke-width:0.8;" x="334.939941" xlink:href="#m75b2f15855" y="384.48"/>
      </g>
     </g>
     <g id="text_5">
      <!-- 180000 -->
      <g transform="translate(315.852441 399.078438)scale(0.1 -0.1)">
       <use xlink:href="#DejaVuSans-49"/>
       <use x="63.623047" xlink:href="#DejaVuSans-56"/>
       <use x="127.246094" xlink:href="#DejaVuSans-48"/>
       <use x="190.869141" xlink:href="#DejaVuSans-48"/>
       <use x="254.492188" xlink:href="#DejaVuSans-48"/>
       <use x="318.115234" xlink:href="#DejaVuSans-48"/>
      </g>
     </g>
    </g>
   </g>
   <g id="matplotlib.axis_2">
    <g id="ytick_1">
     <g id="line2d_6">
      <defs>
       <path d="M 0 0 
L -3.5 0 
" id="mb86c518316" style="stroke:#000000;stroke-width:0.8;"/>
      </defs>
      <g>
       <use style="stroke:#000000;stroke-width:0.8;" x="54" xlink:href="#mb86c518316" y="324.378451"/>
      </g>
     </g>
     <g id="text_6">
      <!-- 174000 -->
      <g transform="translate(8.825 328.177669)scale(0.1 -0.1)">
       <use xlink:href="#DejaVuSans-49"/>
       <use x="63.623047" xlink:href="#DejaVuSans-55"/>
       <use x="127.246094" xlink:href="#DejaVuSans-52"/>
       <use x="190.869141" xlink:href="#DejaVuSans-48"/>
       <use x="254.492188" xlink:href="#DejaVuSans-48"/>
       <use x="318.115234" xlink:href="#DejaVuSans-48"/>
      </g>
     </g>
    </g>
    <g id="ytick_2">
     <g id="line2d_7">
      <g>
       <use style="stroke:#000000;stroke-width:0.8;" x="54" xlink:href="#mb86c518316" y="252.292634"/>
      </g>
     </g>
     <g id="text_7">
      <!-- 176000 -->
      <g transform="translate(8.825 256.091853)scale(0.1 -0.1)">
       <use xlink:href="#DejaVuSans-49"/>
       <use x="63.623047" xlink:href="#DejaVuSans-55"/>
       <use x="127.246094" xlink:href="#DejaVuSans-54"/>
       <use x="190.869141" xlink:href="#DejaVuSans-48"/>
       <use x="254.492188" xlink:href="#DejaVuSans-48"/>
       <use x="318.115234" xlink:href="#DejaVuSans-48"/>
      </g>
     </g>
    </g>
    <g id="ytick_3">
     <g id="line2d_8">
      <g>
       <use style="stroke:#000000;stroke-width:0.8;" x="54" xlink:href="#mb86c518316" y="180.206818"/>
      </g>
     </g>
     <g id="text_8">
      <!-- 178000 -->
      <g transform="translate(8.825 184.006036)scale(0.1 -0.1)">
       <use xlink:href="#DejaVuSans-49"/>
       <use x="63.623047" xlink:href="#DejaVuSans-55"/>
       <use x="127.246094" xlink:href="#DejaVuSans-56"/>
       <use x="190.869141" xlink:href="#DejaVuSans-48"/>
       <use x="254.492188" xlink:href="#DejaVuSans-48"/>
       <use x="318.115234" xlink:href="#DejaVuSans-48"/>
      </g>
     </g>
    </g>
    <g id="ytick_4">
     <g id="line2d_9">
      <g>
       <use style="stroke:#000000;stroke-width:0.8;" x="54" xlink:href="#mb86c518316" y="108.121001"/>
      </g>
     </g>
     <g id="text_9">
      <!-- 180000 -->
      <g transform="translate(8.825 111.92022)scale(0.1 -0.1)">
       <use xlink:href="#DejaVuSans-49"/>
       <use x="63.623047" xlink:href="#DejaVuSans-56"/>
       <use x="127.246094" xlink:href="#DejaVuSans-48"/>
       <use x="190.869141" xlink:href="#DejaVuSans-48"/>
       <use x="254.492188" xlink:href="#DejaVuSans-48"/>
       <use x="318.115234" xlink:href="#DejaVuSans-48"/>
      </g>
     </g>
    </g>
   </g>
   <g id="line2d_10">
    <defs>
     <path d="M -3 3 
L 3 3 
L 3 -3 
L -3 -3 
z
" id="me2e09e93bb" style="stroke:#008000;stroke-linejoin:miter;"/>
    </defs>
    <g clip-path="url(#pb14d2a0278)">
     <use style="fill:#008000;stroke:#008000;stroke-linejoin:miter;" x="69.218182" xlink:href="#me2e09e93bb" y="369.36"/>
     <use style="fill:#008000;stroke:#008000;stroke-linejoin:miter;" x="69.218182" xlink:href="#me2e09e93bb" y="369.36"/>
    </g>
   </g>
   <g id="line2d_11">
    <defs>
     <path d="M 0 1.5 
C 0.397805 1.5 0.77937 1.341951 1.06066 1.06066 
C 1.341951 0.77937 1.5 0.397805 1.5 0 
C 1.5 -0.397805 1.341951 -0.77937 1.06066 -1.06066 
C 0.77937 -1.341951 0.397805 -1.5 0 -1.5 
C -0.397805 -1.5 -0.77937 -1.341951 -1.06066 -1.06066 
C -1.341951 -0.77937 -1.5 -0.397805 -1.5 0 
C -1.5 0.397805 -1.341951 0.77937 -1.06066 1.06066 
C -0.77937 1.341951 -0.397805 1.5 0 1.5 
z
" id="m1ac445ece3" style="stroke:#ff0000;"/>
    </defs>
    <g clip-path="url(#pb14d2a0278)">
     <use style="fill:#ff0000;stroke:#ff0000;" x="221.462781" xlink:href="#m1ac445ece3" y="240.038045"/>
     <use style="fill:#ff0000;stroke:#ff0000;" x="221.462781" xlink:href="#m1ac445ece3" y="240.038045"/>
     <use style="fill:#ff0000;stroke:#ff0000;" x="185.583281" xlink:href="#m1ac445ece3" y="211.311847"/>
     <use style="fill:#ff0000;stroke:#ff0000;" x="185.583281" xlink:href="#m1ac445ece3" y="211.311847"/>
    </g>
   </g>
   <g id="line2d_12">
    <g clip-path="url(#pb14d2a0278)">
     <use style="fill:#ff0000;stroke:#ff0000;" x="253.669577" xlink:href="#m1ac445ece3" y="203.959094"/>
     <use style="fill:#ff0000;stroke:#ff0000;" x="253.669577" xlink:href="#m1ac445ece3" y="203.959094"/>
    </g>
   </g>
   <g id="line2d_13">
    <g clip-path="url(#pb14d2a0278)">
     <use style="fill:#ff0000;stroke:#ff0000;" x="290.710531" xlink:href="#m1ac445ece3" y="190.15466"/>
     <use style="fill:#ff0000;stroke:#ff0000;" x="290.710531" xlink:href="#m1ac445ece3" y="190.15466"/>
     <use style="fill:#ff0000;stroke:#ff0000;" x="276.051103" xlink:href="#m1ac445ece3" y="124.376353"/>
     <use style="fill:#ff0000;stroke:#ff0000;" x="276.051103" xlink:href="#m1ac445ece3" y="124.376353"/>
     <use style="fill:#ff0000;stroke:#ff0000;" x="285.625248" xlink:href="#m1ac445ece3" y="169.754374"/>
     <use style="fill:#ff0000;stroke:#ff0000;" x="285.625248" xlink:href="#m1ac445ece3" y="169.754374"/>
    </g>
   </g>
   <g id="line2d_14">
    <g clip-path="url(#pb14d2a0278)">
     <use style="fill:#ff0000;stroke:#ff0000;" x="279.912151" xlink:href="#m1ac445ece3" y="123.907795"/>
     <use style="fill:#ff0000;stroke:#ff0000;" x="279.912151" xlink:href="#m1ac445ece3" y="123.907795"/>
     <use style="fill:#ff0000;stroke:#ff0000;" x="294.791314" xlink:href="#m1ac445ece3" y="137.640143"/>
     <use style="fill:#ff0000;stroke:#ff0000;" x="294.791314" xlink:href="#m1ac445ece3" y="137.640143"/>
     <use style="fill:#ff0000;stroke:#ff0000;" x="298.903488" xlink:href="#m1ac445ece3" y="142.181549"/>
     <use style="fill:#ff0000;stroke:#ff0000;" x="298.903488" xlink:href="#m1ac445ece3" y="142.181549"/>
     <use style="fill:#ff0000;stroke:#ff0000;" x="322.60342" xlink:href="#m1ac445ece3" y="166.510513"/>
     <use style="fill:#ff0000;stroke:#ff0000;" x="322.60342" xlink:href="#m1ac445ece3" y="166.510513"/>
    </g>
   </g>
   <g id="line2d_15">
    <g clip-path="url(#pb14d2a0278)">
     <use style="fill:#ff0000;stroke:#ff0000;" x="307.441742" xlink:href="#m1ac445ece3" y="130.828033"/>
     <use style="fill:#ff0000;stroke:#ff0000;" x="307.441742" xlink:href="#m1ac445ece3" y="130.828033"/>
     <use style="fill:#ff0000;stroke:#ff0000;" x="325.55414" xlink:href="#m1ac445ece3" y="160.815733"/>
    </g>
   </g>
   <g id="line2d_16">
    <g clip-path="url(#pb14d2a0278)">
     <use style="fill:#ff0000;stroke:#ff0000;" x="317.832043" xlink:href="#m1ac445ece3" y="66.96"/>
     <use style="fill:#ff0000;stroke:#ff0000;" x="317.832043" xlink:href="#m1ac445ece3" y="66.96"/>
     <use style="fill:#ff0000;stroke:#ff0000;" x="323.733483" xlink:href="#m1ac445ece3" y="126.791228"/>
     <use style="fill:#ff0000;stroke:#ff0000;" x="323.733483" xlink:href="#m1ac445ece3" y="126.791228"/>
     <use style="fill:#ff0000;stroke:#ff0000;" x="333.433191" xlink:href="#m1ac445ece3" y="137.8564"/>
     <use style="fill:#ff0000;stroke:#ff0000;" x="333.433191" xlink:href="#m1ac445ece3" y="137.8564"/>
    </g>
   </g>
   <g id="line2d_17">
    <g clip-path="url(#pb14d2a0278)">
     <use style="fill:#ff0000;stroke:#ff0000;" x="325.773875" xlink:href="#m1ac445ece3" y="80.259833"/>
     <use style="fill:#ff0000;stroke:#ff0000;" x="325.773875" xlink:href="#m1ac445ece3" y="80.259833"/>
     <use style="fill:#ff0000;stroke:#ff0000;" x="331.330018" xlink:href="#m1ac445ece3" y="94.136353"/>
     <use style="fill:#ff0000;stroke:#ff0000;" x="331.330018" xlink:href="#m1ac445ece3" y="94.136353"/>
     <use style="fill:#ff0000;stroke:#ff0000;" x="332.365909" xlink:href="#m1ac445ece3" y="120.267461"/>
     <use style="fill:#ff0000;stroke:#ff0000;" x="332.365909" xlink:href="#m1ac445ece3" y="120.267461"/>
     <use style="fill:#ff0000;stroke:#ff0000;" x="362.500923" xlink:href="#m1ac445ece3" y="128.809631"/>
     <use style="fill:#ff0000;stroke:#ff0000;" x="362.500923" xlink:href="#m1ac445ece3" y="128.809631"/>
     <use style="fill:#ff0000;stroke:#ff0000;" x="373.581818" xlink:href="#m1ac445ece3" y="128.953802"/>
     <use style="fill:#ff0000;stroke:#ff0000;" x="373.581818" xlink:href="#m1ac445ece3" y="128.953802"/>
     <use style="fill:#ff0000;stroke:#ff0000;" x="335.253848" xlink:href="#m1ac445ece3" y="126.755185"/>
     <use style="fill:#ff0000;stroke:#ff0000;" x="335.253848" xlink:href="#m1ac445ece3" y="126.755185"/>
    </g>
   </g>
   <g id="line2d_18">
    <g clip-path="url(#pb14d2a0278)">
     <use style="fill:#ff0000;stroke:#ff0000;" x="334.061004" xlink:href="#m1ac445ece3" y="105.38174"/>
     <use style="fill:#ff0000;stroke:#ff0000;" x="334.061004" xlink:href="#m1ac445ece3" y="105.38174"/>
     <use style="fill:#ff0000;stroke:#ff0000;" x="359.487421" xlink:href="#m1ac445ece3" y="105.597998"/>
     <use style="fill:#ff0000;stroke:#ff0000;" x="359.487421" xlink:href="#m1ac445ece3" y="105.597998"/>
    </g>
   </g>
   <g id="line2d_19">
    <g clip-path="url(#pb14d2a0278)">
     <use style="fill:#ff0000;stroke:#ff0000;" x="334.87716" xlink:href="#m1ac445ece3" y="74.240667"/>
     <use style="fill:#ff0000;stroke:#ff0000;" x="334.87716" xlink:href="#m1ac445ece3" y="74.240667"/>
     <use style="fill:#ff0000;stroke:#ff0000;" x="334.87716" xlink:href="#m1ac445ece3" y="74.240667"/>
    </g>
   </g>
   <g id="line2d_20"/>
   <g id="line2d_21"/>
   <g id="line2d_22"/>
   <g id="line2d_23"/>
   <g id="line2d_24"/>
   <g id="line2d_25"/>
   <g id="line2d_26"/>
   <g id="line2d_27"/>
   <g id="line2d_28"/>
   <g id="line2d_29"/>
   <g id="line2d_30"/>
   <g id="line2d_31"/>
   <g id="line2d_32"/>
   <g id="line2d_33"/>
   <g id="line2d_34"/>
   <g id="line2d_35"/>
   <g id="line2d_36"/>
   <g id="line2d_37"/>
   <g id="line2d_38"/>
   <g id="line2d_39"/>
   <g id="line2d_40"/>
   <g id="line2d_41"/>
   <g id="line2d_42"/>
   <g id="line2d_43"/>
   <g id="line2d_44"/>
   <g id="line2d_45"/>
   <g id="line2d_46"/>
   <g id="line2d_47"/>
   <g id="line2d_48"/>
   <g id="line2d_49"/>
   <g id="line2d_50"/>
   <g id="line2d_51"/>
   <g id="line2d_52"/>
   <g id="line2d_53"/>
   <g id="line2d_54"/>
   <g id="line2d_55"/>
   <g id="line2d_56"/>
   <g id="line2d_57"/>
   <g id="line2d_58"/>
   <g id="line2d_59"/>
   <g id="patch_3">
    <path d="M 54 384.48 
L 54 51.84 
" style="fill:none;stroke:#000000;stroke-linecap:square;stroke-linejoin:miter;stroke-width:0.8;"/>
   </g>
   <g id="patch_4">
    <path d="M 388.8 384.48 
L 388.8 51.84 
" style="fill:none;stroke:#000000;stroke-linecap:square;stroke-linejoin:miter;stroke-width:0.8;"/>
   </g>
   <g id="patch_5">
    <path d="M 54 384.48 
L 388.8 384.48 
" style="fill:none;stroke:#000000;stroke-linecap:square;stroke-linejoin:miter;stroke-width:0.8;"/>
   </g>
   <g id="patch_6">
    <path d="M 54 51.84 
L 388.8 51.84 
" style="fill:none;stroke:#000000;stroke-linecap:square;stroke-linejoin:miter;stroke-width:0.8;"/>
   </g>
  </g>
 </g>
 <defs>
  <clipPath id="pb14d2a0278">
   <rect height="332.64" width="334.8" x="54" y="51.84"/>
  </clipPath>
 </defs>
</svg>
