<?xml version="1.0" encoding="utf-8" standalone="no"?>
<!DOCTYPE svg PUBLIC "-//W3C//DTD SVG 1.1//EN"
  "http://www.w3.org/Graphics/SVG/1.1/DTD/svg11.dtd">
<!-- Created with matplotlib (https://matplotlib.org/) -->
<svg height="432pt" version="1.1" viewBox="0 0 432 432" width="432pt" xmlns="http://www.w3.org/2000/svg" xmlns:xlink="http://www.w3.org/1999/xlink">
 <defs>
  <style type="text/css">
*{stroke-linecap:butt;stroke-linejoin:round;}
  </style>
 </defs>
 <g id="figure_1">
  <g id="patch_1">
   <path d="M 0 432 
L 432 432 
L 432 0 
L 0 0 
z
" style="fill:#ffffff;"/>
  </g>
  <g id="axes_1">
   <g id="patch_2">
    <path d="M 54 384.48 
L 388.8 384.48 
L 388.8 51.84 
L 54 51.84 
z
" style="fill:#ffffff;"/>
   </g>
   <g id="matplotlib.axis_1">
    <g id="xtick_1">
     <g id="line2d_1">
      <defs>
       <path d="M 0 0 
L 0 3.5 
" id="m69ddb49bf6" style="stroke:#000000;stroke-width:0.8;"/>
      </defs>
      <g>
       <use style="stroke:#000000;stroke-width:0.8;" x="99.654545" xlink:href="#m69ddb49bf6" y="384.48"/>
      </g>
     </g>
     <g id="text_1">
      <!-- 30 -->
      <defs>
       <path d="M 40.578125 39.3125 
Q 47.65625 37.796875 51.625 33 
Q 55.609375 28.21875 55.609375 21.1875 
Q 55.609375 10.40625 48.1875 4.484375 
Q 40.765625 -1.421875 27.09375 -1.421875 
Q 22.515625 -1.421875 17.65625 -0.515625 
Q 12.796875 0.390625 7.625 2.203125 
L 7.625 11.71875 
Q 11.71875 9.328125 16.59375 8.109375 
Q 21.484375 6.890625 26.8125 6.890625 
Q 36.078125 6.890625 40.9375 10.546875 
Q 45.796875 14.203125 45.796875 21.1875 
Q 45.796875 27.640625 41.28125 31.265625 
Q 36.765625 34.90625 28.71875 34.90625 
L 20.21875 34.90625 
L 20.21875 43.015625 
L 29.109375 43.015625 
Q 36.375 43.015625 40.234375 45.921875 
Q 44.09375 48.828125 44.09375 54.296875 
Q 44.09375 59.90625 40.109375 62.90625 
Q 36.140625 65.921875 28.71875 65.921875 
Q 24.65625 65.921875 20.015625 65.03125 
Q 15.375 64.15625 9.8125 62.3125 
L 9.8125 71.09375 
Q 15.4375 72.65625 20.34375 73.4375 
Q 25.25 74.21875 29.59375 74.21875 
Q 40.828125 74.21875 47.359375 69.109375 
Q 53.90625 64.015625 53.90625 55.328125 
Q 53.90625 49.265625 50.4375 45.09375 
Q 46.96875 40.921875 40.578125 39.3125 
z
" id="DejaVuSans-51"/>
       <path d="M 31.78125 66.40625 
Q 24.171875 66.40625 20.328125 58.90625 
Q 16.5 51.421875 16.5 36.375 
Q 16.5 21.390625 20.328125 13.890625 
Q 24.171875 6.390625 31.78125 6.390625 
Q 39.453125 6.390625 43.28125 13.890625 
Q 47.125 21.390625 47.125 36.375 
Q 47.125 51.421875 43.28125 58.90625 
Q 39.453125 66.40625 31.78125 66.40625 
z
M 31.78125 74.21875 
Q 44.046875 74.21875 50.515625 64.515625 
Q 56.984375 54.828125 56.984375 36.375 
Q 56.984375 17.96875 50.515625 8.265625 
Q 44.046875 -1.421875 31.78125 -1.421875 
Q 19.53125 -1.421875 13.0625 8.265625 
Q 6.59375 17.96875 6.59375 36.375 
Q 6.59375 54.828125 13.0625 64.515625 
Q 19.53125 74.21875 31.78125 74.21875 
z
" id="DejaVuSans-48"/>
      </defs>
      <g transform="translate(93.292045 399.078438)scale(0.1 -0.1)">
       <use xlink:href="#DejaVuSans-51"/>
       <use x="63.623047" xlink:href="#DejaVuSans-48"/>
      </g>
     </g>
    </g>
    <g id="xtick_2">
     <g id="line2d_2">
      <g>
       <use style="stroke:#000000;stroke-width:0.8;" x="150.381818" xlink:href="#m69ddb49bf6" y="384.48"/>
      </g>
     </g>
     <g id="text_2">
      <!-- 40 -->
      <defs>
       <path d="M 37.796875 64.3125 
L 12.890625 25.390625 
L 37.796875 25.390625 
z
M 35.203125 72.90625 
L 47.609375 72.90625 
L 47.609375 25.390625 
L 58.015625 25.390625 
L 58.015625 17.1875 
L 47.609375 17.1875 
L 47.609375 0 
L 37.796875 0 
L 37.796875 17.1875 
L 4.890625 17.1875 
L 4.890625 26.703125 
z
" id="DejaVuSans-52"/>
      </defs>
      <g transform="translate(144.019318 399.078438)scale(0.1 -0.1)">
       <use xlink:href="#DejaVuSans-52"/>
       <use x="63.623047" xlink:href="#DejaVuSans-48"/>
      </g>
     </g>
    </g>
    <g id="xtick_3">
     <g id="line2d_3">
      <g>
       <use style="stroke:#000000;stroke-width:0.8;" x="201.109091" xlink:href="#m69ddb49bf6" y="384.48"/>
      </g>
     </g>
     <g id="text_3">
      <!-- 50 -->
      <defs>
       <path d="M 10.796875 72.90625 
L 49.515625 72.90625 
L 49.515625 64.59375 
L 19.828125 64.59375 
L 19.828125 46.734375 
Q 21.96875 47.46875 24.109375 47.828125 
Q 26.265625 48.1875 28.421875 48.1875 
Q 40.625 48.1875 47.75 41.5 
Q 54.890625 34.8125 54.890625 23.390625 
Q 54.890625 11.625 47.5625 5.09375 
Q 40.234375 -1.421875 26.90625 -1.421875 
Q 22.3125 -1.421875 17.546875 -0.640625 
Q 12.796875 0.140625 7.71875 1.703125 
L 7.71875 11.625 
Q 12.109375 9.234375 16.796875 8.0625 
Q 21.484375 6.890625 26.703125 6.890625 
Q 35.15625 6.890625 40.078125 11.328125 
Q 45.015625 15.765625 45.015625 23.390625 
Q 45.015625 31 40.078125 35.4375 
Q 35.15625 39.890625 26.703125 39.890625 
Q 22.75 39.890625 18.8125 39.015625 
Q 14.890625 38.140625 10.796875 36.28125 
z
" id="DejaVuSans-53"/>
      </defs>
      <g transform="translate(194.746591 399.078438)scale(0.1 -0.1)">
       <use xlink:href="#DejaVuSans-53"/>
       <use x="63.623047" xlink:href="#DejaVuSans-48"/>
      </g>
     </g>
    </g>
    <g id="xtick_4">
     <g id="line2d_4">
      <g>
       <use style="stroke:#000000;stroke-width:0.8;" x="251.836364" xlink:href="#m69ddb49bf6" y="384.48"/>
      </g>
     </g>
     <g id="text_4">
      <!-- 60 -->
      <defs>
       <path d="M 33.015625 40.375 
Q 26.375 40.375 22.484375 35.828125 
Q 18.609375 31.296875 18.609375 23.390625 
Q 18.609375 15.53125 22.484375 10.953125 
Q 26.375 6.390625 33.015625 6.390625 
Q 39.65625 6.390625 43.53125 10.953125 
Q 47.40625 15.53125 47.40625 23.390625 
Q 47.40625 31.296875 43.53125 35.828125 
Q 39.65625 40.375 33.015625 40.375 
z
M 52.59375 71.296875 
L 52.59375 62.3125 
Q 48.875 64.0625 45.09375 64.984375 
Q 41.3125 65.921875 37.59375 65.921875 
Q 27.828125 65.921875 22.671875 59.328125 
Q 17.53125 52.734375 16.796875 39.40625 
Q 19.671875 43.65625 24.015625 45.921875 
Q 28.375 48.1875 33.59375 48.1875 
Q 44.578125 48.1875 50.953125 41.515625 
Q 57.328125 34.859375 57.328125 23.390625 
Q 57.328125 12.15625 50.6875 5.359375 
Q 44.046875 -1.421875 33.015625 -1.421875 
Q 20.359375 -1.421875 13.671875 8.265625 
Q 6.984375 17.96875 6.984375 36.375 
Q 6.984375 53.65625 15.1875 63.9375 
Q 23.390625 74.21875 37.203125 74.21875 
Q 40.921875 74.21875 44.703125 73.484375 
Q 48.484375 72.75 52.59375 71.296875 
z
" id="DejaVuSans-54"/>
      </defs>
      <g transform="translate(245.473864 399.078438)scale(0.1 -0.1)">
       <use xlink:href="#DejaVuSans-54"/>
       <use x="63.623047" xlink:href="#DejaVuSans-48"/>
      </g>
     </g>
    </g>
    <g id="xtick_5">
     <g id="line2d_5">
      <g>
       <use style="stroke:#000000;stroke-width:0.8;" x="302.563636" xlink:href="#m69ddb49bf6" y="384.48"/>
      </g>
     </g>
     <g id="text_5">
      <!-- 70 -->
      <defs>
       <path d="M 8.203125 72.90625 
L 55.078125 72.90625 
L 55.078125 68.703125 
L 28.609375 0 
L 18.3125 0 
L 43.21875 64.59375 
L 8.203125 64.59375 
z
" id="DejaVuSans-55"/>
      </defs>
      <g transform="translate(296.201136 399.078438)scale(0.1 -0.1)">
       <use xlink:href="#DejaVuSans-55"/>
       <use x="63.623047" xlink:href="#DejaVuSans-48"/>
      </g>
     </g>
    </g>
    <g id="xtick_6">
     <g id="line2d_6">
      <g>
       <use style="stroke:#000000;stroke-width:0.8;" x="353.290909" xlink:href="#m69ddb49bf6" y="384.48"/>
      </g>
     </g>
     <g id="text_6">
      <!-- 80 -->
      <defs>
       <path d="M 31.78125 34.625 
Q 24.75 34.625 20.71875 30.859375 
Q 16.703125 27.09375 16.703125 20.515625 
Q 16.703125 13.921875 20.71875 10.15625 
Q 24.75 6.390625 31.78125 6.390625 
Q 38.8125 6.390625 42.859375 10.171875 
Q 46.921875 13.96875 46.921875 20.515625 
Q 46.921875 27.09375 42.890625 30.859375 
Q 38.875 34.625 31.78125 34.625 
z
M 21.921875 38.8125 
Q 15.578125 40.375 12.03125 44.71875 
Q 8.5 49.078125 8.5 55.328125 
Q 8.5 64.0625 14.71875 69.140625 
Q 20.953125 74.21875 31.78125 74.21875 
Q 42.671875 74.21875 48.875 69.140625 
Q 55.078125 64.0625 55.078125 55.328125 
Q 55.078125 49.078125 51.53125 44.71875 
Q 48 40.375 41.703125 38.8125 
Q 48.828125 37.15625 52.796875 32.3125 
Q 56.78125 27.484375 56.78125 20.515625 
Q 56.78125 9.90625 50.3125 4.234375 
Q 43.84375 -1.421875 31.78125 -1.421875 
Q 19.734375 -1.421875 13.25 4.234375 
Q 6.78125 9.90625 6.78125 20.515625 
Q 6.78125 27.484375 10.78125 32.3125 
Q 14.796875 37.15625 21.921875 38.8125 
z
M 18.3125 54.390625 
Q 18.3125 48.734375 21.84375 45.5625 
Q 25.390625 42.390625 31.78125 42.390625 
Q 38.140625 42.390625 41.71875 45.5625 
Q 45.3125 48.734375 45.3125 54.390625 
Q 45.3125 60.0625 41.71875 63.234375 
Q 38.140625 66.40625 31.78125 66.40625 
Q 25.390625 66.40625 21.84375 63.234375 
Q 18.3125 60.0625 18.3125 54.390625 
z
" id="DejaVuSans-56"/>
      </defs>
      <g transform="translate(346.928409 399.078438)scale(0.1 -0.1)">
       <use xlink:href="#DejaVuSans-56"/>
       <use x="63.623047" xlink:href="#DejaVuSans-48"/>
      </g>
     </g>
    </g>
   </g>
   <g id="matplotlib.axis_2">
    <g id="ytick_1">
     <g id="line2d_7">
      <defs>
       <path d="M 0 0 
L -3.5 0 
" id="mc404cfabb3" style="stroke:#000000;stroke-width:0.8;"/>
      </defs>
      <g>
       <use style="stroke:#000000;stroke-width:0.8;" x="54" xlink:href="#mc404cfabb3" y="336.169756"/>
      </g>
     </g>
     <g id="text_7">
      <!-- 40 -->
      <g transform="translate(34.275 339.968975)scale(0.1 -0.1)">
       <use xlink:href="#DejaVuSans-52"/>
       <use x="63.623047" xlink:href="#DejaVuSans-48"/>
      </g>
     </g>
    </g>
    <g id="ytick_2">
     <g id="line2d_8">
      <g>
       <use style="stroke:#000000;stroke-width:0.8;" x="54" xlink:href="#mc404cfabb3" y="262.413659"/>
      </g>
     </g>
     <g id="text_8">
      <!-- 60 -->
      <g transform="translate(34.275 266.212877)scale(0.1 -0.1)">
       <use xlink:href="#DejaVuSans-54"/>
       <use x="63.623047" xlink:href="#DejaVuSans-48"/>
      </g>
     </g>
    </g>
    <g id="ytick_3">
     <g id="line2d_9">
      <g>
       <use style="stroke:#000000;stroke-width:0.8;" x="54" xlink:href="#mc404cfabb3" y="188.657561"/>
      </g>
     </g>
     <g id="text_9">
      <!-- 80 -->
      <g transform="translate(34.275 192.45678)scale(0.1 -0.1)">
       <use xlink:href="#DejaVuSans-56"/>
       <use x="63.623047" xlink:href="#DejaVuSans-48"/>
      </g>
     </g>
    </g>
    <g id="ytick_4">
     <g id="line2d_10">
      <g>
       <use style="stroke:#000000;stroke-width:0.8;" x="54" xlink:href="#mc404cfabb3" y="114.901463"/>
      </g>
     </g>
     <g id="text_10">
      <!-- 100 -->
      <defs>
       <path d="M 12.40625 8.296875 
L 28.515625 8.296875 
L 28.515625 63.921875 
L 10.984375 60.40625 
L 10.984375 69.390625 
L 28.421875 72.90625 
L 38.28125 72.90625 
L 38.28125 8.296875 
L 54.390625 8.296875 
L 54.390625 0 
L 12.40625 0 
z
" id="DejaVuSans-49"/>
      </defs>
      <g transform="translate(27.9125 118.700682)scale(0.1 -0.1)">
       <use xlink:href="#DejaVuSans-49"/>
       <use x="63.623047" xlink:href="#DejaVuSans-48"/>
       <use x="127.246094" xlink:href="#DejaVuSans-48"/>
      </g>
     </g>
    </g>
   </g>
   <g id="line2d_11">
    <defs>
     <path d="M -3 3 
L 3 3 
L 3 -3 
L -3 -3 
z
" id="m1d0a7283fe" style="stroke:#008000;stroke-linejoin:miter;"/>
    </defs>
    <g clip-path="url(#pf9e79a40b1)">
     <use style="fill:#008000;stroke:#008000;stroke-linejoin:miter;" x="69.218182" xlink:href="#m1d0a7283fe" y="243.974634"/>
     <use style="fill:#008000;stroke:#008000;stroke-linejoin:miter;" x="109.8" xlink:href="#m1d0a7283fe" y="310.355122"/>
     <use style="fill:#008000;stroke:#008000;stroke-linejoin:miter;" x="109.8" xlink:href="#m1d0a7283fe" y="310.355122"/>
     <use style="fill:#008000;stroke:#008000;stroke-linejoin:miter;" x="140.236364" xlink:href="#m1d0a7283fe" y="369.36"/>
     <use style="fill:#008000;stroke:#008000;stroke-linejoin:miter;" x="140.236364" xlink:href="#m1d0a7283fe" y="369.36"/>
    </g>
   </g>
   <g id="line2d_12">
    <defs>
     <path d="M 0 1.5 
C 0.397805 1.5 0.77937 1.341951 1.06066 1.06066 
C 1.341951 0.77937 1.5 0.397805 1.5 0 
C 1.5 -0.397805 1.341951 -0.77937 1.06066 -1.06066 
C 0.77937 -1.341951 0.397805 -1.5 0 -1.5 
C -0.397805 -1.5 -0.77937 -1.341951 -1.06066 -1.06066 
C -1.341951 -0.77937 -1.5 -0.397805 -1.5 0 
C -1.5 0.397805 -1.341951 0.77937 -1.06066 1.06066 
C -0.77937 1.341951 -0.397805 1.5 0 1.5 
z
" id="m6d06af4f9e" style="stroke:#ff0000;"/>
    </defs>
    <g clip-path="url(#pf9e79a40b1)">
     <use style="fill:#ff0000;stroke:#ff0000;" x="119.945455" xlink:href="#m6d06af4f9e" y="306.667317"/>
     <use style="fill:#ff0000;stroke:#ff0000;" x="119.945455" xlink:href="#m6d06af4f9e" y="306.667317"/>
     <use style="fill:#ff0000;stroke:#ff0000;" x="277.2" xlink:href="#m6d06af4f9e" y="350.920976"/>
     <use style="fill:#ff0000;stroke:#ff0000;" x="277.2" xlink:href="#m6d06af4f9e" y="350.920976"/>
     <use style="fill:#ff0000;stroke:#ff0000;" x="180.818182" xlink:href="#m6d06af4f9e" y="336.169756"/>
     <use style="fill:#ff0000;stroke:#ff0000;" x="180.818182" xlink:href="#m6d06af4f9e" y="336.169756"/>
    </g>
   </g>
   <g id="line2d_13">
    <g clip-path="url(#pf9e79a40b1)">
     <use style="fill:#ff0000;stroke:#ff0000;" x="140.236364" xlink:href="#m6d06af4f9e" y="291.916098"/>
     <use style="fill:#ff0000;stroke:#ff0000;" x="140.236364" xlink:href="#m6d06af4f9e" y="291.916098"/>
     <use style="fill:#ff0000;stroke:#ff0000;" x="130.090909" xlink:href="#m6d06af4f9e" y="225.53561"/>
     <use style="fill:#ff0000;stroke:#ff0000;" x="130.090909" xlink:href="#m6d06af4f9e" y="225.53561"/>
     <use style="fill:#ff0000;stroke:#ff0000;" x="140.236364" xlink:href="#m6d06af4f9e" y="266.101463"/>
     <use style="fill:#ff0000;stroke:#ff0000;" x="140.236364" xlink:href="#m6d06af4f9e" y="266.101463"/>
     <use style="fill:#ff0000;stroke:#ff0000;" x="140.236364" xlink:href="#m6d06af4f9e" y="266.101463"/>
     <use style="fill:#ff0000;stroke:#ff0000;" x="348.218182" xlink:href="#m6d06af4f9e" y="343.545366"/>
     <use style="fill:#ff0000;stroke:#ff0000;" x="348.218182" xlink:href="#m6d06af4f9e" y="343.545366"/>
     <use style="fill:#ff0000;stroke:#ff0000;" x="206.181818" xlink:href="#m6d06af4f9e" y="317.730732"/>
     <use style="fill:#ff0000;stroke:#ff0000;" x="206.181818" xlink:href="#m6d06af4f9e" y="317.730732"/>
     <use style="fill:#ff0000;stroke:#ff0000;" x="307.636364" xlink:href="#m6d06af4f9e" y="325.106341"/>
     <use style="fill:#ff0000;stroke:#ff0000;" x="307.636364" xlink:href="#m6d06af4f9e" y="325.106341"/>
    </g>
   </g>
   <g id="line2d_14">
    <g clip-path="url(#pf9e79a40b1)">
     <use style="fill:#ff0000;stroke:#ff0000;" x="175.745455" xlink:href="#m6d06af4f9e" y="188.657561"/>
     <use style="fill:#ff0000;stroke:#ff0000;" x="175.745455" xlink:href="#m6d06af4f9e" y="188.657561"/>
     <use style="fill:#ff0000;stroke:#ff0000;" x="165.6" xlink:href="#m6d06af4f9e" y="66.96"/>
     <use style="fill:#ff0000;stroke:#ff0000;" x="165.6" xlink:href="#m6d06af4f9e" y="66.96"/>
     <use style="fill:#ff0000;stroke:#ff0000;" x="251.836364" xlink:href="#m6d06af4f9e" y="291.916098"/>
     <use style="fill:#ff0000;stroke:#ff0000;" x="236.618182" xlink:href="#m6d06af4f9e" y="280.852683"/>
     <use style="fill:#ff0000;stroke:#ff0000;" x="236.618182" xlink:href="#m6d06af4f9e" y="280.852683"/>
     <use style="fill:#ff0000;stroke:#ff0000;" x="226.472727" xlink:href="#m6d06af4f9e" y="225.53561"/>
     <use style="fill:#ff0000;stroke:#ff0000;" x="226.472727" xlink:href="#m6d06af4f9e" y="225.53561"/>
     <use style="fill:#ff0000;stroke:#ff0000;" x="226.472727" xlink:href="#m6d06af4f9e" y="218.16"/>
     <use style="fill:#ff0000;stroke:#ff0000;" x="226.472727" xlink:href="#m6d06af4f9e" y="218.16"/>
     <use style="fill:#ff0000;stroke:#ff0000;" x="373.581818" xlink:href="#m6d06af4f9e" y="321.418537"/>
     <use style="fill:#ff0000;stroke:#ff0000;" x="373.581818" xlink:href="#m6d06af4f9e" y="321.418537"/>
     <use style="fill:#ff0000;stroke:#ff0000;" x="312.709091" xlink:href="#m6d06af4f9e" y="299.291707"/>
     <use style="fill:#ff0000;stroke:#ff0000;" x="312.709091" xlink:href="#m6d06af4f9e" y="299.291707"/>
    </g>
   </g>
   <g id="line2d_15">
    <g clip-path="url(#pf9e79a40b1)">
     <use style="fill:#ff0000;stroke:#ff0000;" x="231.545455" xlink:href="#m6d06af4f9e" y="192.345366"/>
     <use style="fill:#ff0000;stroke:#ff0000;" x="231.545455" xlink:href="#m6d06af4f9e" y="192.345366"/>
     <use style="fill:#ff0000;stroke:#ff0000;" x="231.545455" xlink:href="#m6d06af4f9e" y="192.345366"/>
     <use style="fill:#ff0000;stroke:#ff0000;" x="231.545455" xlink:href="#m6d06af4f9e" y="192.345366"/>
     <use style="fill:#ff0000;stroke:#ff0000;" x="231.545455" xlink:href="#m6d06af4f9e" y="192.345366"/>
     <use style="fill:#ff0000;stroke:#ff0000;" x="231.545455" xlink:href="#m6d06af4f9e" y="192.345366"/>
     <use style="fill:#ff0000;stroke:#ff0000;" x="231.545455" xlink:href="#m6d06af4f9e" y="192.345366"/>
     <use style="fill:#ff0000;stroke:#ff0000;" x="231.545455" xlink:href="#m6d06af4f9e" y="192.345366"/>
     <use style="fill:#ff0000;stroke:#ff0000;" x="231.545455" xlink:href="#m6d06af4f9e" y="192.345366"/>
     <use style="fill:#ff0000;stroke:#ff0000;" x="231.545455" xlink:href="#m6d06af4f9e" y="192.345366"/>
     <use style="fill:#ff0000;stroke:#ff0000;" x="231.545455" xlink:href="#m6d06af4f9e" y="192.345366"/>
    </g>
   </g>
   <g id="line2d_16"/>
   <g id="line2d_17"/>
   <g id="line2d_18"/>
   <g id="line2d_19"/>
   <g id="line2d_20"/>
   <g id="line2d_21"/>
   <g id="line2d_22"/>
   <g id="line2d_23"/>
   <g id="line2d_24"/>
   <g id="line2d_25"/>
   <g id="line2d_26"/>
   <g id="line2d_27"/>
   <g id="line2d_28"/>
   <g id="line2d_29"/>
   <g id="line2d_30"/>
   <g id="line2d_31"/>
   <g id="line2d_32"/>
   <g id="line2d_33"/>
   <g id="line2d_34"/>
   <g id="line2d_35"/>
   <g id="line2d_36"/>
   <g id="line2d_37"/>
   <g id="line2d_38"/>
   <g id="line2d_39"/>
   <g id="line2d_40"/>
   <g id="line2d_41"/>
   <g id="line2d_42"/>
   <g id="line2d_43"/>
   <g id="line2d_44"/>
   <g id="line2d_45"/>
   <g id="line2d_46"/>
   <g id="line2d_47"/>
   <g id="line2d_48"/>
   <g id="line2d_49"/>
   <g id="line2d_50"/>
   <g id="line2d_51"/>
   <g id="line2d_52"/>
   <g id="line2d_53"/>
   <g id="line2d_54"/>
   <g id="line2d_55"/>
   <g id="line2d_56"/>
   <g id="line2d_57"/>
   <g id="line2d_58"/>
   <g id="line2d_59"/>
   <g id="line2d_60"/>
   <g id="patch_3">
    <path d="M 54 384.48 
L 54 51.84 
" style="fill:none;stroke:#000000;stroke-linecap:square;stroke-linejoin:miter;stroke-width:0.8;"/>
   </g>
   <g id="patch_4">
    <path d="M 388.8 384.48 
L 388.8 51.84 
" style="fill:none;stroke:#000000;stroke-linecap:square;stroke-linejoin:miter;stroke-width:0.8;"/>
   </g>
   <g id="patch_5">
    <path d="M 54 384.48 
L 388.8 384.48 
" style="fill:none;stroke:#000000;stroke-linecap:square;stroke-linejoin:miter;stroke-width:0.8;"/>
   </g>
   <g id="patch_6">
    <path d="M 54 51.84 
L 388.8 51.84 
" style="fill:none;stroke:#000000;stroke-linecap:square;stroke-linejoin:miter;stroke-width:0.8;"/>
   </g>
  </g>
 </g>
 <defs>
  <clipPath id="pf9e79a40b1">
   <rect height="332.64" width="334.8" x="54" y="51.84"/>
  </clipPath>
 </defs>
</svg>
