<?xml version="1.0" encoding="utf-8" standalone="no"?>
<!DOCTYPE svg PUBLIC "-//W3C//DTD SVG 1.1//EN"
  "http://www.w3.org/Graphics/SVG/1.1/DTD/svg11.dtd">
<!-- Created with matplotlib (https://matplotlib.org/) -->
<svg height="432pt" version="1.1" viewBox="0 0 432 432" width="432pt" xmlns="http://www.w3.org/2000/svg" xmlns:xlink="http://www.w3.org/1999/xlink">
 <defs>
  <style type="text/css">
*{stroke-linecap:butt;stroke-linejoin:round;}
  </style>
 </defs>
 <g id="figure_1">
  <g id="patch_1">
   <path d="M 0 432 
L 432 432 
L 432 0 
L 0 0 
z
" style="fill:#ffffff;"/>
  </g>
  <g id="axes_1">
   <g id="patch_2">
    <path d="M 54 384.48 
L 388.8 384.48 
L 388.8 51.84 
L 54 51.84 
z
" style="fill:#ffffff;"/>
   </g>
   <g id="matplotlib.axis_1">
    <g id="xtick_1">
     <g id="line2d_1">
      <defs>
       <path d="M 0 0 
L 0 3.5 
" id="m0b116a9617" style="stroke:#000000;stroke-width:0.8;"/>
      </defs>
      <g>
       <use style="stroke:#000000;stroke-width:0.8;" x="94.581818" xlink:href="#m0b116a9617" y="384.48"/>
      </g>
     </g>
     <g id="text_1">
      <!-- 40 -->
      <defs>
       <path d="M 37.796875 64.3125 
L 12.890625 25.390625 
L 37.796875 25.390625 
z
M 35.203125 72.90625 
L 47.609375 72.90625 
L 47.609375 25.390625 
L 58.015625 25.390625 
L 58.015625 17.1875 
L 47.609375 17.1875 
L 47.609375 0 
L 37.796875 0 
L 37.796875 17.1875 
L 4.890625 17.1875 
L 4.890625 26.703125 
z
" id="DejaVuSans-52"/>
       <path d="M 31.78125 66.40625 
Q 24.171875 66.40625 20.328125 58.90625 
Q 16.5 51.421875 16.5 36.375 
Q 16.5 21.390625 20.328125 13.890625 
Q 24.171875 6.390625 31.78125 6.390625 
Q 39.453125 6.390625 43.28125 13.890625 
Q 47.125 21.390625 47.125 36.375 
Q 47.125 51.421875 43.28125 58.90625 
Q 39.453125 66.40625 31.78125 66.40625 
z
M 31.78125 74.21875 
Q 44.046875 74.21875 50.515625 64.515625 
Q 56.984375 54.828125 56.984375 36.375 
Q 56.984375 17.96875 50.515625 8.265625 
Q 44.046875 -1.421875 31.78125 -1.421875 
Q 19.53125 -1.421875 13.0625 8.265625 
Q 6.59375 17.96875 6.59375 36.375 
Q 6.59375 54.828125 13.0625 64.515625 
Q 19.53125 74.21875 31.78125 74.21875 
z
" id="DejaVuSans-48"/>
      </defs>
      <g transform="translate(88.219318 399.078438)scale(0.1 -0.1)">
       <use xlink:href="#DejaVuSans-52"/>
       <use x="63.623047" xlink:href="#DejaVuSans-48"/>
      </g>
     </g>
    </g>
    <g id="xtick_2">
     <g id="line2d_2">
      <g>
       <use style="stroke:#000000;stroke-width:0.8;" x="167.049351" xlink:href="#m0b116a9617" y="384.48"/>
      </g>
     </g>
     <g id="text_2">
      <!-- 60 -->
      <defs>
       <path d="M 33.015625 40.375 
Q 26.375 40.375 22.484375 35.828125 
Q 18.609375 31.296875 18.609375 23.390625 
Q 18.609375 15.53125 22.484375 10.953125 
Q 26.375 6.390625 33.015625 6.390625 
Q 39.65625 6.390625 43.53125 10.953125 
Q 47.40625 15.53125 47.40625 23.390625 
Q 47.40625 31.296875 43.53125 35.828125 
Q 39.65625 40.375 33.015625 40.375 
z
M 52.59375 71.296875 
L 52.59375 62.3125 
Q 48.875 64.0625 45.09375 64.984375 
Q 41.3125 65.921875 37.59375 65.921875 
Q 27.828125 65.921875 22.671875 59.328125 
Q 17.53125 52.734375 16.796875 39.40625 
Q 19.671875 43.65625 24.015625 45.921875 
Q 28.375 48.1875 33.59375 48.1875 
Q 44.578125 48.1875 50.953125 41.515625 
Q 57.328125 34.859375 57.328125 23.390625 
Q 57.328125 12.15625 50.6875 5.359375 
Q 44.046875 -1.421875 33.015625 -1.421875 
Q 20.359375 -1.421875 13.671875 8.265625 
Q 6.984375 17.96875 6.984375 36.375 
Q 6.984375 53.65625 15.1875 63.9375 
Q 23.390625 74.21875 37.203125 74.21875 
Q 40.921875 74.21875 44.703125 73.484375 
Q 48.484375 72.75 52.59375 71.296875 
z
" id="DejaVuSans-54"/>
      </defs>
      <g transform="translate(160.686851 399.078438)scale(0.1 -0.1)">
       <use xlink:href="#DejaVuSans-54"/>
       <use x="63.623047" xlink:href="#DejaVuSans-48"/>
      </g>
     </g>
    </g>
    <g id="xtick_3">
     <g id="line2d_3">
      <g>
       <use style="stroke:#000000;stroke-width:0.8;" x="239.516883" xlink:href="#m0b116a9617" y="384.48"/>
      </g>
     </g>
     <g id="text_3">
      <!-- 80 -->
      <defs>
       <path d="M 31.78125 34.625 
Q 24.75 34.625 20.71875 30.859375 
Q 16.703125 27.09375 16.703125 20.515625 
Q 16.703125 13.921875 20.71875 10.15625 
Q 24.75 6.390625 31.78125 6.390625 
Q 38.8125 6.390625 42.859375 10.171875 
Q 46.921875 13.96875 46.921875 20.515625 
Q 46.921875 27.09375 42.890625 30.859375 
Q 38.875 34.625 31.78125 34.625 
z
M 21.921875 38.8125 
Q 15.578125 40.375 12.03125 44.71875 
Q 8.5 49.078125 8.5 55.328125 
Q 8.5 64.0625 14.71875 69.140625 
Q 20.953125 74.21875 31.78125 74.21875 
Q 42.671875 74.21875 48.875 69.140625 
Q 55.078125 64.0625 55.078125 55.328125 
Q 55.078125 49.078125 51.53125 44.71875 
Q 48 40.375 41.703125 38.8125 
Q 48.828125 37.15625 52.796875 32.3125 
Q 56.78125 27.484375 56.78125 20.515625 
Q 56.78125 9.90625 50.3125 4.234375 
Q 43.84375 -1.421875 31.78125 -1.421875 
Q 19.734375 -1.421875 13.25 4.234375 
Q 6.78125 9.90625 6.78125 20.515625 
Q 6.78125 27.484375 10.78125 32.3125 
Q 14.796875 37.15625 21.921875 38.8125 
z
M 18.3125 54.390625 
Q 18.3125 48.734375 21.84375 45.5625 
Q 25.390625 42.390625 31.78125 42.390625 
Q 38.140625 42.390625 41.71875 45.5625 
Q 45.3125 48.734375 45.3125 54.390625 
Q 45.3125 60.0625 41.71875 63.234375 
Q 38.140625 66.40625 31.78125 66.40625 
Q 25.390625 66.40625 21.84375 63.234375 
Q 18.3125 60.0625 18.3125 54.390625 
z
" id="DejaVuSans-56"/>
      </defs>
      <g transform="translate(233.154383 399.078438)scale(0.1 -0.1)">
       <use xlink:href="#DejaVuSans-56"/>
       <use x="63.623047" xlink:href="#DejaVuSans-48"/>
      </g>
     </g>
    </g>
    <g id="xtick_4">
     <g id="line2d_4">
      <g>
       <use style="stroke:#000000;stroke-width:0.8;" x="311.984416" xlink:href="#m0b116a9617" y="384.48"/>
      </g>
     </g>
     <g id="text_4">
      <!-- 100 -->
      <defs>
       <path d="M 12.40625 8.296875 
L 28.515625 8.296875 
L 28.515625 63.921875 
L 10.984375 60.40625 
L 10.984375 69.390625 
L 28.421875 72.90625 
L 38.28125 72.90625 
L 38.28125 8.296875 
L 54.390625 8.296875 
L 54.390625 0 
L 12.40625 0 
z
" id="DejaVuSans-49"/>
      </defs>
      <g transform="translate(302.440666 399.078438)scale(0.1 -0.1)">
       <use xlink:href="#DejaVuSans-49"/>
       <use x="63.623047" xlink:href="#DejaVuSans-48"/>
       <use x="127.246094" xlink:href="#DejaVuSans-48"/>
      </g>
     </g>
    </g>
    <g id="xtick_5">
     <g id="line2d_5">
      <g>
       <use style="stroke:#000000;stroke-width:0.8;" x="384.451948" xlink:href="#m0b116a9617" y="384.48"/>
      </g>
     </g>
     <g id="text_5">
      <!-- 120 -->
      <defs>
       <path d="M 19.1875 8.296875 
L 53.609375 8.296875 
L 53.609375 0 
L 7.328125 0 
L 7.328125 8.296875 
Q 12.9375 14.109375 22.625 23.890625 
Q 32.328125 33.6875 34.8125 36.53125 
Q 39.546875 41.84375 41.421875 45.53125 
Q 43.3125 49.21875 43.3125 52.78125 
Q 43.3125 58.59375 39.234375 62.25 
Q 35.15625 65.921875 28.609375 65.921875 
Q 23.96875 65.921875 18.8125 64.3125 
Q 13.671875 62.703125 7.8125 59.421875 
L 7.8125 69.390625 
Q 13.765625 71.78125 18.9375 73 
Q 24.125 74.21875 28.421875 74.21875 
Q 39.75 74.21875 46.484375 68.546875 
Q 53.21875 62.890625 53.21875 53.421875 
Q 53.21875 48.921875 51.53125 44.890625 
Q 49.859375 40.875 45.40625 35.40625 
Q 44.1875 33.984375 37.640625 27.21875 
Q 31.109375 20.453125 19.1875 8.296875 
z
" id="DejaVuSans-50"/>
      </defs>
      <g transform="translate(374.908198 399.078438)scale(0.1 -0.1)">
       <use xlink:href="#DejaVuSans-49"/>
       <use x="63.623047" xlink:href="#DejaVuSans-50"/>
       <use x="127.246094" xlink:href="#DejaVuSans-48"/>
      </g>
     </g>
    </g>
   </g>
   <g id="matplotlib.axis_2">
    <g id="ytick_1">
     <g id="line2d_6">
      <defs>
       <path d="M 0 0 
L -3.5 0 
" id="ma5e992be1a" style="stroke:#000000;stroke-width:0.8;"/>
      </defs>
      <g>
       <use style="stroke:#000000;stroke-width:0.8;" x="54" xlink:href="#ma5e992be1a" y="362.993684"/>
      </g>
     </g>
     <g id="text_6">
      <!-- 20 -->
      <g transform="translate(34.275 366.792903)scale(0.1 -0.1)">
       <use xlink:href="#DejaVuSans-50"/>
       <use x="63.623047" xlink:href="#DejaVuSans-48"/>
      </g>
     </g>
    </g>
    <g id="ytick_2">
     <g id="line2d_7">
      <g>
       <use style="stroke:#000000;stroke-width:0.8;" x="54" xlink:href="#ma5e992be1a" y="299.330526"/>
      </g>
     </g>
     <g id="text_7">
      <!-- 40 -->
      <g transform="translate(34.275 303.129745)scale(0.1 -0.1)">
       <use xlink:href="#DejaVuSans-52"/>
       <use x="63.623047" xlink:href="#DejaVuSans-48"/>
      </g>
     </g>
    </g>
    <g id="ytick_3">
     <g id="line2d_8">
      <g>
       <use style="stroke:#000000;stroke-width:0.8;" x="54" xlink:href="#ma5e992be1a" y="235.667368"/>
      </g>
     </g>
     <g id="text_8">
      <!-- 60 -->
      <g transform="translate(34.275 239.466587)scale(0.1 -0.1)">
       <use xlink:href="#DejaVuSans-54"/>
       <use x="63.623047" xlink:href="#DejaVuSans-48"/>
      </g>
     </g>
    </g>
    <g id="ytick_4">
     <g id="line2d_9">
      <g>
       <use style="stroke:#000000;stroke-width:0.8;" x="54" xlink:href="#ma5e992be1a" y="172.004211"/>
      </g>
     </g>
     <g id="text_9">
      <!-- 80 -->
      <g transform="translate(34.275 175.803429)scale(0.1 -0.1)">
       <use xlink:href="#DejaVuSans-56"/>
       <use x="63.623047" xlink:href="#DejaVuSans-48"/>
      </g>
     </g>
    </g>
    <g id="ytick_5">
     <g id="line2d_10">
      <g>
       <use style="stroke:#000000;stroke-width:0.8;" x="54" xlink:href="#ma5e992be1a" y="108.341053"/>
      </g>
     </g>
     <g id="text_10">
      <!-- 100 -->
      <g transform="translate(27.9125 112.140271)scale(0.1 -0.1)">
       <use xlink:href="#DejaVuSans-49"/>
       <use x="63.623047" xlink:href="#DejaVuSans-48"/>
       <use x="127.246094" xlink:href="#DejaVuSans-48"/>
      </g>
     </g>
    </g>
   </g>
   <g id="line2d_11">
    <defs>
     <path d="M -3 3 
L 3 3 
L 3 -3 
L -3 -3 
z
" id="mbb874dbec6" style="stroke:#008000;stroke-linejoin:miter;"/>
    </defs>
    <g clip-path="url(#pcfeb674996)">
     <use style="fill:#008000;stroke:#008000;stroke-linejoin:miter;" x="69.218182" xlink:href="#mbb874dbec6" y="277.048421"/>
     <use style="fill:#008000;stroke:#008000;stroke-linejoin:miter;" x="116.322078" xlink:href="#mbb874dbec6" y="369.36"/>
    </g>
   </g>
   <g id="line2d_12">
    <defs>
     <path d="M 0 1.5 
C 0.397805 1.5 0.77937 1.341951 1.06066 1.06066 
C 1.341951 0.77937 1.5 0.397805 1.5 0 
C 1.5 -0.397805 1.341951 -0.77937 1.06066 -1.06066 
C 0.77937 -1.341951 0.397805 -1.5 0 -1.5 
C -0.397805 -1.5 -0.77937 -1.341951 -1.06066 -1.06066 
C -1.341951 -0.77937 -1.5 -0.397805 -1.5 0 
C -1.5 0.397805 -1.341951 0.77937 -1.06066 1.06066 
C -0.77937 1.341951 -0.397805 1.5 0 1.5 
z
" id="m6a78c38749" style="stroke:#ff0000;"/>
    </defs>
    <g clip-path="url(#pcfeb674996)">
     <use style="fill:#ff0000;stroke:#ff0000;" x="105.451948" xlink:href="#m6a78c38749" y="251.583158"/>
     <use style="fill:#ff0000;stroke:#ff0000;" x="72.841558" xlink:href="#m6a78c38749" y="219.751579"/>
     <use style="fill:#ff0000;stroke:#ff0000;" x="105.451948" xlink:href="#m6a78c38749" y="226.117895"/>
     <use style="fill:#ff0000;stroke:#ff0000;" x="105.451948" xlink:href="#m6a78c38749" y="248.4"/>
     <use style="fill:#ff0000;stroke:#ff0000;" x="119.945455" xlink:href="#m6a78c38749" y="299.330526"/>
    </g>
   </g>
   <g id="line2d_13">
    <g clip-path="url(#pcfeb674996)">
     <use style="fill:#ff0000;stroke:#ff0000;" x="94.581818" xlink:href="#m6a78c38749" y="178.370526"/>
     <use style="fill:#ff0000;stroke:#ff0000;" x="134.438961" xlink:href="#m6a78c38749" y="289.781053"/>
     <use style="fill:#ff0000;stroke:#ff0000;" x="127.192208" xlink:href="#m6a78c38749" y="257.949474"/>
     <use style="fill:#ff0000;stroke:#ff0000;" x="257.633766" xlink:href="#m6a78c38749" y="292.964211"/>
    </g>
   </g>
   <g id="line2d_14">
    <g clip-path="url(#pcfeb674996)">
     <use style="fill:#ff0000;stroke:#ff0000;" x="112.698701" xlink:href="#m6a78c38749" y="136.989474"/>
     <use style="fill:#ff0000;stroke:#ff0000;" x="177.919481" xlink:href="#m6a78c38749" y="273.865263"/>
     <use style="fill:#ff0000;stroke:#ff0000;" x="214.153247" xlink:href="#m6a78c38749" y="283.414737"/>
     <use style="fill:#ff0000;stroke:#ff0000;" x="167.049351" xlink:href="#m6a78c38749" y="254.766316"/>
     <use style="fill:#ff0000;stroke:#ff0000;" x="145.309091" xlink:href="#m6a78c38749" y="254.766316"/>
     <use style="fill:#ff0000;stroke:#ff0000;" x="141.685714" xlink:href="#m6a78c38749" y="187.92"/>
    </g>
   </g>
   <g id="line2d_15">
    <g clip-path="url(#pcfeb674996)">
     <use style="fill:#ff0000;stroke:#ff0000;" x="141.685714" xlink:href="#m6a78c38749" y="108.341053"/>
     <use style="fill:#ff0000;stroke:#ff0000;" x="214.153247" xlink:href="#m6a78c38749" y="261.132632"/>
     <use style="fill:#ff0000;stroke:#ff0000;" x="152.555844" xlink:href="#m6a78c38749" y="226.117895"/>
     <use style="fill:#ff0000;stroke:#ff0000;" x="174.296104" xlink:href="#m6a78c38749" y="238.850526"/>
     <use style="fill:#ff0000;stroke:#ff0000;" x="152.555844" xlink:href="#m6a78c38749" y="210.202105"/>
     <use style="fill:#ff0000;stroke:#ff0000;" x="145.309091" xlink:href="#m6a78c38749" y="181.553684"/>
    </g>
   </g>
   <g id="line2d_16">
    <g clip-path="url(#pcfeb674996)">
     <use style="fill:#ff0000;stroke:#ff0000;" x="257.633766" xlink:href="#m6a78c38749" y="254.766316"/>
     <use style="fill:#ff0000;stroke:#ff0000;" x="257.633766" xlink:href="#m6a78c38749" y="235.667368"/>
     <use style="fill:#ff0000;stroke:#ff0000;" x="177.919481" xlink:href="#m6a78c38749" y="235.667368"/>
     <use style="fill:#ff0000;stroke:#ff0000;" x="152.555844" xlink:href="#m6a78c38749" y="124.256842"/>
     <use style="fill:#ff0000;stroke:#ff0000;" x="152.555844" xlink:href="#m6a78c38749" y="70.143158"/>
    </g>
   </g>
   <g id="line2d_17">
    <g clip-path="url(#pcfeb674996)">
     <use style="fill:#ff0000;stroke:#ff0000;" x="373.581818" xlink:href="#m6a78c38749" y="242.033684"/>
     <use style="fill:#ff0000;stroke:#ff0000;" x="243.14026" xlink:href="#m6a78c38749" y="226.117895"/>
     <use style="fill:#ff0000;stroke:#ff0000;" x="181.542857" xlink:href="#m6a78c38749" y="210.202105"/>
     <use style="fill:#ff0000;stroke:#ff0000;" x="264.880519" xlink:href="#m6a78c38749" y="232.484211"/>
     <use style="fill:#ff0000;stroke:#ff0000;" x="192.412987" xlink:href="#m6a78c38749" y="226.117895"/>
     <use style="fill:#ff0000;stroke:#ff0000;" x="181.542857" xlink:href="#m6a78c38749" y="82.875789"/>
    </g>
   </g>
   <g id="line2d_18">
    <g clip-path="url(#pcfeb674996)">
     <use style="fill:#ff0000;stroke:#ff0000;" x="188.78961" xlink:href="#m6a78c38749" y="207.018947"/>
     <use style="fill:#ff0000;stroke:#ff0000;" x="185.166234" xlink:href="#m6a78c38749" y="191.103158"/>
     <use style="fill:#ff0000;stroke:#ff0000;" x="185.166234" xlink:href="#m6a78c38749" y="156.088421"/>
     <use style="fill:#ff0000;stroke:#ff0000;" x="275.750649" xlink:href="#m6a78c38749" y="226.117895"/>
     <use style="fill:#ff0000;stroke:#ff0000;" x="203.283117" xlink:href="#m6a78c38749" y="222.934737"/>
     <use style="fill:#ff0000;stroke:#ff0000;" x="185.166234" xlink:href="#m6a78c38749" y="76.509474"/>
    </g>
   </g>
   <g id="line2d_19">
    <g clip-path="url(#pcfeb674996)">
     <use style="fill:#ff0000;stroke:#ff0000;" x="192.412987" xlink:href="#m6a78c38749" y="172.004211"/>
     <use style="fill:#ff0000;stroke:#ff0000;" x="199.65974" xlink:href="#m6a78c38749" y="187.92"/>
     <use style="fill:#ff0000;stroke:#ff0000;" x="311.984416" xlink:href="#m6a78c38749" y="222.934737"/>
     <use style="fill:#ff0000;stroke:#ff0000;" x="225.023377" xlink:href="#m6a78c38749" y="216.568421"/>
     <use style="fill:#ff0000;stroke:#ff0000;" x="192.412987" xlink:href="#m6a78c38749" y="66.96"/>
    </g>
   </g>
   <g id="line2d_20">
    <g clip-path="url(#pcfeb674996)">
     <use style="fill:#ff0000;stroke:#ff0000;" x="228.646753" xlink:href="#m6a78c38749" y="194.286316"/>
     <use style="fill:#ff0000;stroke:#ff0000;" x="228.646753" xlink:href="#m6a78c38749" y="194.286316"/>
     <use style="fill:#ff0000;stroke:#ff0000;" x="228.646753" xlink:href="#m6a78c38749" y="194.286316"/>
     <use style="fill:#ff0000;stroke:#ff0000;" x="228.646753" xlink:href="#m6a78c38749" y="194.286316"/>
     <use style="fill:#ff0000;stroke:#ff0000;" x="228.646753" xlink:href="#m6a78c38749" y="194.286316"/>
    </g>
   </g>
   <g id="line2d_21"/>
   <g id="line2d_22"/>
   <g id="line2d_23"/>
   <g id="line2d_24"/>
   <g id="line2d_25"/>
   <g id="line2d_26"/>
   <g id="line2d_27"/>
   <g id="line2d_28"/>
   <g id="line2d_29"/>
   <g id="line2d_30"/>
   <g id="line2d_31"/>
   <g id="line2d_32"/>
   <g id="line2d_33"/>
   <g id="line2d_34"/>
   <g id="line2d_35"/>
   <g id="line2d_36"/>
   <g id="line2d_37"/>
   <g id="line2d_38"/>
   <g id="line2d_39"/>
   <g id="line2d_40"/>
   <g id="line2d_41"/>
   <g id="line2d_42"/>
   <g id="line2d_43"/>
   <g id="line2d_44"/>
   <g id="line2d_45"/>
   <g id="line2d_46"/>
   <g id="line2d_47"/>
   <g id="line2d_48"/>
   <g id="line2d_49"/>
   <g id="line2d_50"/>
   <g id="line2d_51"/>
   <g id="line2d_52"/>
   <g id="line2d_53"/>
   <g id="line2d_54"/>
   <g id="line2d_55"/>
   <g id="line2d_56"/>
   <g id="line2d_57"/>
   <g id="line2d_58"/>
   <g id="line2d_59"/>
   <g id="line2d_60"/>
   <g id="patch_3">
    <path d="M 54 384.48 
L 54 51.84 
" style="fill:none;stroke:#000000;stroke-linecap:square;stroke-linejoin:miter;stroke-width:0.8;"/>
   </g>
   <g id="patch_4">
    <path d="M 388.8 384.48 
L 388.8 51.84 
" style="fill:none;stroke:#000000;stroke-linecap:square;stroke-linejoin:miter;stroke-width:0.8;"/>
   </g>
   <g id="patch_5">
    <path d="M 54 384.48 
L 388.8 384.48 
" style="fill:none;stroke:#000000;stroke-linecap:square;stroke-linejoin:miter;stroke-width:0.8;"/>
   </g>
   <g id="patch_6">
    <path d="M 54 51.84 
L 388.8 51.84 
" style="fill:none;stroke:#000000;stroke-linecap:square;stroke-linejoin:miter;stroke-width:0.8;"/>
   </g>
  </g>
 </g>
 <defs>
  <clipPath id="pcfeb674996">
   <rect height="332.64" width="334.8" x="54" y="51.84"/>
  </clipPath>
 </defs>
</svg>
